<?xml version="1.0" encoding="UTF-8"?>
<svg version="1.1" xmlns="http://www.w3.org/2000/svg" width="418" height="397">
<path d="M0 0 C24.92111524 23.80796309 41.80310563 58.20503248 42.72363281 93.00317383 C42.74349069 94.48902829 42.75722922 95.97497407 42.765625 97.4609375 C42.77132507 98.27020187 42.77702515 99.07946625 42.78289795 99.91325378 C42.79229274 101.62176227 42.79885979 103.33028843 42.80273438 105.03881836 C42.81233132 107.58416828 42.84336164 110.12867074 42.875 112.67382812 C43.12962631 151.98917775 28.88157095 188.28068636 1.4375 216.44140625 C-29.77906054 247.4981073 -74.56214659 260.87865482 -117.4375 264.81640625 C-118.60796875 264.92855469 -119.7784375 265.04070312 -120.984375 265.15625 C-132.78257354 266.11321499 -144.60985536 265.91192084 -156.4375 265.81640625 C-156.72399414 266.4304834 -157.01048828 267.04456055 -157.30566406 267.67724609 C-162.22390887 276.97268635 -174.81775017 284.06235842 -183.4375 289.81640625 C-184.36820313 290.44417969 -185.29890625 291.07195312 -186.2578125 291.71875 C-215.05983316 309.81232708 -248.47372423 311.3298607 -281.4375 310.81640625 C-280.83395088 307.73079849 -279.87605545 305.74246029 -277.99609375 303.234375 C-277.49867676 302.55769775 -277.00125977 301.88102051 -276.48876953 301.18383789 C-275.95622559 300.46446045 -275.42368164 299.74508301 -274.875 299.00390625 C-263.24875198 282.83793449 -255.20067381 265.71806835 -252.4375 245.81640625 C-252.93975098 245.56584473 -253.44200195 245.3152832 -253.95947266 245.05712891 C-269.3973781 237.29770755 -282.91038418 228.83221122 -295.4375 216.81640625 C-296.39269531 215.93597656 -297.34789062 215.05554688 -298.33203125 214.1484375 C-323.82102035 190.18615408 -337.59827314 154.27049187 -338.72792053 119.63729858 C-338.80572327 116.05075649 -338.82270994 112.46619566 -338.8125 108.87890625 C-338.81162384 108.1193866 -338.81074768 107.35986694 -338.80984497 106.57733154 C-338.65450608 65.47433925 -324.74383474 28.58618252 -295.35888672 -0.62841797 C-234.73295454 -58.88423924 -121.86187289 -62.61169419 0 0 Z M-288.6875 22.12890625 C-313.30708273 50.21996985 -319.89848593 85.54834681 -318.4375 121.81640625 C-315.95092953 155.36007504 -300.56923025 184.64550596 -275.4375 206.81640625 C-262.18618947 217.65680625 -245.85012651 226.93355682 -229.4375 231.81640625 C-235.1788829 267.00388713 -235.1788829 267.00388713 -241.30078125 282.78125 C-242.55440905 285.5883931 -242.55440905 285.5883931 -242.4375 287.81640625 C-216.90161621 283.68905578 -192.60563277 274.120694 -175.4375 253.81640625 C-175.03724609 253.06883057 -174.63699219 252.32125488 -174.22460938 251.55102539 C-172.55081188 248.65768767 -171.104265 246.85984151 -168.4375 244.81640625 C-163.37801399 243.72885004 -158.51322133 243.71281359 -153.35513306 243.82556152 C-150.84154323 243.87962587 -148.33315785 243.87987181 -145.8190918 243.86425781 C-142.50715933 243.84395874 -139.1957744 243.83772541 -135.88378906 243.84228516 C-104.35001028 243.77655858 -70.8918984 236.62508095 -43.4375 220.81640625 C-42.84855957 220.48060547 -42.25961914 220.14480469 -41.65283203 219.79882812 C-13.70797241 203.58419447 6.05022142 177.65266319 14.43823242 146.42553711 C15.24081969 143.23598857 15.96163668 140.04904377 16.5625 136.81640625 C16.73837646 135.88691162 16.91425293 134.95741699 17.09545898 133.99975586 C18.58717509 125.361864 18.92234414 116.8808275 18.875 108.12890625 C18.87317719 107.42708221 18.87135437 106.72525818 18.86947632 106.00216675 C18.82161741 95.03499357 18.22864096 84.48884256 15.5625 73.81640625 C15.39621094 73.11596191 15.22992188 72.41551758 15.05859375 71.69384766 C9.85471037 50.27601281 -1.24015161 32.58941178 -16.4375 16.81640625 C-17.02015625 16.17058594 -17.6028125 15.52476563 -18.203125 14.859375 C-45.9682734 -15.07930775 -94.34036247 -25.25906282 -133.4375 -27.18359375 C-189.31747138 -29.17716569 -248.50299869 -20.09887479 -288.6875 22.12890625 Z " fill="#124462" transform="translate(356.4375,66.18359375)"/>
</svg>
