<?xml version="1.0" encoding="UTF-8"?>
<svg version="1.1" xmlns="http://www.w3.org/2000/svg" width="512" height="512">
<path d="M0 0 C1.98210047 -0.00143248 3.96419515 -0.00794114 5.94628525 -0.01451111 C21.01271223 -0.03587099 35.46999263 0.53350939 50.25576401 3.49855042 C52.15679655 3.841049 54.05783657 4.18350604 55.95888901 4.52589417 C57.47558768 4.82386562 58.99127407 5.12704869 60.50576401 5.43605042 C61.32584946 5.60225891 62.14593491 5.76846741 62.99087143 5.93971252 C73.06382518 8.02481885 82.79101853 10.39533706 92.25576401 14.49855042 C93.82959586 14.98851693 95.41262851 15.45054547 97.00576401 15.87355042 C101.66035178 17.22260393 105.94519562 19.05065303 110.32217026 21.11964417 C112.70496113 22.23965106 115.09761852 23.30774192 117.50967026 24.36183167 C128.9195255 29.42088485 140.16550798 35.11217804 150.02920151 42.80714417 C153.20238534 45.21765048 156.58976854 47.12855293 160.06826401 49.06105042 C161.15107651 49.77261292 161.15107651 49.77261292 162.25576401 50.49855042 C162.25576401 51.15855042 162.25576401 51.81855042 162.25576401 52.49855042 C162.79717026 52.73573792 163.33857651 52.97292542 163.89638901 53.21730042 C166.88826538 54.84202798 169.367358 56.84873811 172.00576401 58.99855042 C172.99060776 59.79261292 173.97545151 60.58667542 174.99013901 61.40480042 C175.73779526 62.09573792 176.48545151 62.78667542 177.25576401 63.49855042 C177.25576401 64.15855042 177.25576401 64.81855042 177.25576401 65.49855042 C178.09107651 65.59136292 178.09107651 65.59136292 178.94326401 65.68605042 C182.24519267 66.84618751 183.88484391 68.95414836 186.25576401 71.49855042 C187.46232651 72.67417542 187.46232651 72.67417542 188.69326401 73.87355042 C197.25576401 82.64489188 197.25576401 82.64489188 197.25576401 85.49855042 C197.82166245 85.7086676 198.38756088 85.91878479 198.97060776 86.13526917 C202.09400711 87.99863049 203.68254302 90.38030639 205.81826401 93.31105042 C206.9648851 94.86759338 206.9648851 94.86759338 208.13467026 96.45558167 C209.45600356 98.3511961 210.72605579 100.28495814 211.91201401 102.26808167 C213.17578577 104.58165383 213.17578577 104.58165383 215.19326401 106.37355042 C217.31445746 108.55902245 218.6859396 110.8048658 220.13467026 113.47120667 C221.37567083 115.7153854 222.71848666 117.88064085 224.06826401 120.06105042 C227.85001053 126.34808493 231.06746244 132.89782631 234.25576401 139.49855042 C234.77267807 140.56202698 235.28959213 141.62550354 235.82217026 142.72120667 C242.962035 157.76525586 248.28830298 173.3390524 252.25576401 189.49855042 C252.50278061 190.46679749 252.74979721 191.43504456 253.00429916 192.43263245 C262.45606884 231.25663421 262.35291306 280.54310588 248.93203354 318.48878479 C248.2628872 320.47738142 247.74784306 322.45298765 247.26748276 324.49464417 C246.19082173 328.9728016 244.67109554 333.24707008 243.06826401 337.56105042 C242.76074203 338.38959534 242.45322006 339.21814026 242.13637924 340.0717926 C238.16140596 350.60289064 233.32222672 360.6154795 228.06826401 370.56105042 C227.74736801 371.16852112 227.42647202 371.77599182 227.0958519 372.40187073 C225.0209943 376.25693793 222.72864234 379.88814805 220.25576401 383.49855042 C216.23422444 389.43771654 216.23422444 389.43771654 212.50576401 395.56105042 C212.09326401 396.20042542 211.68076401 396.83980042 211.25576401 397.49855042 C210.59576401 397.49855042 209.93576401 397.49855042 209.25576401 397.49855042 C209.01599838 398.22042542 208.77623276 398.94230042 208.52920151 399.68605042 C207.07234952 402.90363762 205.29625585 404.93058567 202.88076401 407.49855042 C200.49928212 410.04729357 198.22004553 412.54497154 196.09170151 415.31105042 C195.48584213 416.03292542 194.87998276 416.75480042 194.25576401 417.49855042 C193.59576401 417.49855042 192.93576401 417.49855042 192.25576401 417.49855042 C191.98763901 418.13792542 191.71951401 418.77730042 191.44326401 419.43605042 C190.25576401 421.49855042 190.25576401 421.49855042 187.25576401 422.49855042 C186.92576401 423.15855042 186.59576401 423.81855042 186.25576401 424.49855042 C185.92576401 425.15855042 185.59576401 425.81855042 185.25576401 426.49855042 C184.26576401 426.82855042 183.27576401 427.15855042 182.25576401 427.49855042 C181.92576401 428.15855042 181.59576401 428.81855042 181.25576401 429.49855042 C180.92576401 430.15855042 180.59576401 430.81855042 180.25576401 431.49855042 C179.26576401 431.82855042 178.27576401 432.15855042 177.25576401 432.49855042 C176.92576401 433.48855042 176.59576401 434.47855042 176.25576401 435.49855042 C174.18413913 437.25524208 172.12334908 438.88893277 169.94326401 440.49855042 C169.36125229 440.93683167 168.77924057 441.37511292 168.17959213 441.82667542 C166.54322733 443.05719209 164.89968882 444.27815202 163.25576401 445.49855042 C162.49908432 446.09667542 161.74240463 446.69480042 160.96279526 447.31105042 C159.25576401 448.49855042 159.25576401 448.49855042 157.25576401 448.49855042 C157.25576401 449.15855042 157.25576401 449.81855042 157.25576401 450.49855042 C155.24404526 452.18995667 155.24404526 452.18995667 152.56826401 454.06105042 C151.69814682 454.68108948 150.82802963 455.30112854 149.93154526 455.93995667 C147.28421301 457.48197939 145.27020487 458.10205639 142.25576401 458.49855042 C142.25576401 459.15855042 142.25576401 459.81855042 142.25576401 460.49855042 C135.08621507 464.49301339 127.83055239 468.26595498 120.47451401 471.90089417 C117.98871776 473.13474206 115.52745677 474.40102141 113.06826401 475.68605042 C108.29401278 478.06314609 103.28190526 479.73818693 98.25576401 481.49855042 C96.94788828 481.97873342 95.64063251 482.46060724 94.33388901 482.94386292 C69.8176131 491.94105385 42.96756544 497.50060575 16.82217026 497.77198792 C15.72332001 497.78442535 14.62446976 497.79686279 13.49232101 497.80967712 C-14.94015189 498.0690603 -42.20849875 497.77050587 -69.60019302 489.32569885 C-78.1745548 487.06991863 -84.25525063 488.16503641 -91.74423599 492.49855042 C-96.95930537 494.99579663 -102.23458694 497.32939389 -107.61923599 499.43605042 C-112.7130601 501.43632793 -117.65394118 503.72685544 -122.61142349 506.04151917 C-126.06856968 507.64939389 -129.54708158 509.2022135 -133.03720474 510.73683167 C-134.28658056 511.29433346 -135.52055362 511.88670923 -136.74423599 512.49855042 C-139.69456232 512.64999856 -142.60548217 512.72997447 -145.55673599 512.74855042 C-146.76813248 512.77948792 -146.76813248 512.77948792 -148.00400162 512.81105042 C-152.70743643 512.84186735 -155.97070495 512.65208954 -159.74423599 509.49855042 C-159.74423599 508.83855042 -159.74423599 508.17855042 -159.74423599 507.49855042 C-160.73423599 507.16855042 -161.72423599 506.83855042 -162.74423599 506.49855042 C-163.87704849 504.78370667 -163.87704849 504.78370667 -164.86923599 502.56105042 C-165.36810318 501.49564026 -165.36810318 501.49564026 -165.87704849 500.40870667 C-168.06625779 493.06203584 -167.93266112 484.98218304 -168.24423599 477.36183167 C-168.32754938 475.4666485 -168.41088331 473.57146623 -168.49423599 471.67628479 C-168.62023085 468.73386181 -168.74506553 465.79139273 -168.86923599 462.84889221 C-168.99136806 459.97807306 -169.11764823 457.10745727 -169.24423599 454.23683167 C-169.27968521 453.3637587 -169.31513443 452.49068573 -169.35165787 451.59115601 C-169.56292561 446.82914745 -169.98127981 442.20463902 -170.74423599 437.49855042 C-171.40423599 437.49855042 -172.06423599 437.49855042 -172.74423599 437.49855042 C-172.99173599 436.71480042 -173.23923599 435.93105042 -173.49423599 435.12355042 C-174.98149013 432.00031673 -175.6800787 431.8603981 -178.74423599 430.49855042 C-183.0452255 427.20417547 -186.47600954 423.82414425 -189.74423599 419.49855042 C-189.74423599 418.83855042 -189.74423599 418.17855042 -189.74423599 417.49855042 C-190.28822037 417.29874573 -190.83220474 417.09894104 -191.39267349 416.89308167 C-194.71879836 414.92061227 -196.92966685 412.12462233 -199.36923599 409.18605042 C-199.85907974 408.61692932 -200.34892349 408.04780823 -200.85361099 407.46144104 C-203.56884491 404.23060942 -205.17872556 401.44105145 -206.74423599 397.49855042 C-207.73423599 397.16855042 -208.72423599 396.83855042 -209.74423599 396.49855042 C-210.81063243 394.87356537 -211.79133942 393.19258876 -212.74423599 391.49855042 C-214.29649116 389.24961379 -215.86091665 387.01030511 -217.43954849 384.77980042 C-218.84069878 382.32988495 -219.34319507 380.27649244 -219.74423599 377.49855042 C-220.40423599 377.49855042 -221.06423599 377.49855042 -221.74423599 377.49855042 C-227.99399001 366.0696021 -233.70269942 354.51276578 -238.74423599 342.49855042 C-239.23814835 341.32244202 -239.23814835 341.32244202 -239.74203873 340.12257385 C-251.02317136 312.64087969 -255.6401174 283.5481267 -255.39609146 253.97218323 C-255.36928802 250.13100711 -255.39603265 246.29276431 -255.42782974 242.45167542 C-255.46057945 219.82882449 -252.80061387 198.06735743 -245.74423599 176.49855042 C-245.37298599 175.26878479 -245.00173599 174.03901917 -244.61923599 172.77198792 C-242.55139643 165.92226936 -240.31030726 159.17802431 -237.74423599 152.49855042 C-237.4103688 151.61296448 -237.07650162 150.72737854 -236.73251724 149.81495667 C-231.58472437 136.79194383 -224.93559001 123.87253242 -216.74423599 112.49855042 C-216.08423599 111.48792542 -215.42423599 110.47730042 -214.74423599 109.43605042 C-212.19634349 105.6938333 -209.48498882 102.1008479 -206.74423599 98.49855042 C-205.89762109 97.36463046 -205.05128819 96.23049992 -204.20517349 95.09620667 C-203.30186227 93.89673585 -202.39821541 92.69751773 -201.49423599 91.49855042 C-201.0577272 90.91001282 -200.62121841 90.32147522 -200.17148209 89.71510315 C-199.07647584 88.27234404 -197.91532545 86.88026747 -196.74423599 85.49855042 C-196.08423599 85.49855042 -195.42423599 85.49855042 -194.74423599 85.49855042 C-194.46579849 84.44667542 -194.46579849 84.44667542 -194.18173599 83.37355042 C-192.49537036 80.00081915 -190.58208812 78.50633212 -187.68173599 76.18605042 C-184.918572 73.77942372 -182.70113286 70.99346892 -180.42001724 68.13526917 C-178.74423599 66.49855042 -178.74423599 66.49855042 -176.66220474 66.01808167 C-175.71281021 65.7609137 -175.71281021 65.7609137 -174.74423599 65.49855042 C-174.0635228 64.17233333 -173.39964343 62.83745419 -172.74423599 61.49855042 C-170.21298599 59.13917542 -170.21298599 59.13917542 -167.24423599 56.74855042 C-166.26454849 55.94933167 -165.28486099 55.15011292 -164.27548599 54.32667542 C-161.74423599 52.49855042 -161.74423599 52.49855042 -159.74423599 52.49855042 C-159.74423599 51.83855042 -159.74423599 51.17855042 -159.74423599 50.49855042 C-158.10835033 49.44895245 -156.43546005 48.45643296 -154.74423599 47.49855042 C-153.31954416 46.48894737 -151.90322701 45.46745211 -150.49423599 44.43605042 C-143.80840412 39.71487079 -136.73205626 35.6675601 -129.64267349 31.59083557 C-128.0685532 30.68514959 -126.49947316 29.77070993 -124.93173599 28.85401917 C-120.93355172 26.55645146 -116.98728566 24.7096074 -112.63876724 23.17433167 C-108.89240604 21.83800076 -105.26172874 20.20614535 -101.65829849 18.52589417 C-96.13107841 15.97561542 -90.59564877 14.15221055 -84.74423599 12.49855042 C-83.18116859 12.02123789 -81.61867436 11.54204468 -80.05673599 11.06105042 C-53.26807953 3.05654896 -27.92767034 0.01203085 0 0 Z M137.88076401 176.24855042 C137.1008812 176.79511292 136.32099838 177.34167542 135.51748276 177.90480042 C134.77111557 178.43073792 134.02474838 178.95667542 133.25576401 179.49855042 C132.07033383 180.25181766 130.88317566 181.00238254 129.69326401 181.74855042 C128.88888901 182.32605042 128.08451401 182.90355042 127.25576401 183.49855042 C127.25576401 184.15855042 127.25576401 184.81855042 127.25576401 185.49855042 C126.17295151 185.87173401 126.17295151 185.87173401 125.06826401 186.25245667 C121.98681331 187.61771051 119.83308404 189.27351782 117.25576401 191.43605042 C114.72746042 193.5495542 112.3437238 195.44644923 109.50576401 197.12745667 C107.13390867 198.29970171 107.13390867 198.29970171 106.25576401 200.49855042 C104.59602228 201.51000243 102.92768338 202.5073575 101.25576401 203.49855042 C99.08844853 205.12335889 96.9458933 206.76131999 94.81826401 208.43605042 C91.56546438 210.99154789 88.34203397 213.47428769 84.84560776 215.68995667 C83.99095932 216.2867926 83.13631088 216.88362854 82.25576401 217.49855042 C82.25576401 218.15855042 82.25576401 218.81855042 82.25576401 219.49855042 C81.54549057 219.73573792 80.83521713 219.97292542 80.10342026 220.21730042 C76.7802993 221.71247692 74.45737295 223.63041257 71.69326401 225.99855042 C68.6345183 228.61184772 65.90719884 230.81201325 62.25576401 232.49855042 C61.82263901 232.95230042 61.38951401 233.40605042 60.94326401 233.87355042 C56.6566066 238.00144274 52.76712915 239.78553785 46.88076401 240.12355042 C40.83538432 239.92315109 36.6995929 237.48766193 32.25576401 233.49855042 C31.92576401 232.83855042 31.59576401 232.17855042 31.25576401 231.49855042 C29.60043778 230.47988812 27.93316263 229.48044229 26.25576401 228.49855042 C25.59576401 227.83855042 24.93576401 227.17855042 24.25576401 226.49855042 C23.26576401 226.49855042 22.27576401 226.49855042 21.25576401 226.49855042 C21.25576401 225.83855042 21.25576401 225.17855042 21.25576401 224.49855042 C19.26808189 222.98015929 19.26808189 222.98015929 16.81826401 221.49855042 C12.36054761 218.70811761 12.36054761 218.70811761 11.25576401 216.49855042 C9.60043778 215.47988812 7.93316263 214.48044229 6.25576401 213.49855042 C5.59576401 212.83855042 4.93576401 212.17855042 4.25576401 211.49855042 C3.26576401 211.49855042 2.27576401 211.49855042 1.25576401 211.49855042 C1.25576401 210.83855042 1.25576401 210.17855042 1.25576401 209.49855042 C-0.73191811 207.98015929 -0.73191811 207.98015929 -3.18173599 206.49855042 C-7.63945239 203.70811761 -7.63945239 203.70811761 -8.74423599 201.49855042 C-10.39956222 200.47988812 -12.06683737 199.48044229 -13.74423599 198.49855042 C-14.73423599 197.50855042 -14.73423599 197.50855042 -15.74423599 196.49855042 C-16.73423599 196.49855042 -17.72423599 196.49855042 -18.74423599 196.49855042 C-18.74423599 195.83855042 -18.74423599 195.17855042 -18.74423599 194.49855042 C-20.75981771 193.036207 -22.74706834 191.72549793 -24.86923599 190.43605042 C-25.72388443 189.88981018 -25.72388443 189.88981018 -26.59579849 189.33253479 C-35.08413112 184.11413939 -45.97186424 184.45763092 -55.55673599 186.18605042 C-64.21614856 189.75169089 -72.14576741 194.06802468 -76.74423599 202.49855042 C-77.61095117 203.79579078 -78.48721524 205.08666768 -79.36923599 206.37355042 C-82.55197084 211.10421586 -85.44177091 215.98787827 -88.33847427 220.89601135 C-91.12433073 225.57492753 -94.14018226 230.00709062 -97.43173599 234.35011292 C-98.89277881 236.74170085 -99.35709389 238.74016291 -99.74423599 241.49855042 C-100.40423599 241.49855042 -101.06423599 241.49855042 -101.74423599 241.49855042 C-103.00047416 243.20481498 -103.00047416 243.20481498 -104.24423599 245.49855042 C-106.99640147 250.24063946 -109.8358246 254.91388534 -112.74423599 259.56105042 C-113.17679703 260.25376038 -113.60935806 260.94647034 -114.05502701 261.66017151 C-116.37186525 265.35673945 -118.73194871 269.01301605 -121.18173599 272.62355042 C-122.7159714 274.88654764 -123.9741713 276.96841822 -125.18173599 279.43605042 C-127.12653127 283.24784916 -129.56697903 286.57436178 -132.04892349 290.05323792 C-133.41503224 292.02370813 -134.6476279 293.96686353 -135.80673599 296.06105042 C-137.35896691 298.81500849 -138.97687985 301.38497887 -140.74423599 303.99855042 C-142.86046458 307.13585929 -144.84353246 310.29493805 -146.66611099 313.61573792 C-147.5072579 315.08469737 -148.40447396 316.52159241 -149.32236099 317.94386292 C-152.5820842 323.04401361 -152.5820842 323.04401361 -154.43173599 328.74855042 C-153.45150607 332.66947009 -151.61179268 334.69471721 -148.74423599 337.49855042 C-144.7534835 339.85207111 -142.1723153 339.59895722 -137.74423599 338.49855042 C-135.31899101 337.08704679 -133.12768589 335.69357246 -130.86923599 334.06105042 C-129.97978287 333.44906799 -129.97978287 333.44906799 -129.07236099 332.82472229 C-127.58610374 331.77509591 -126.15908881 330.64260796 -124.74423599 329.49855042 C-124.74423599 328.83855042 -124.74423599 328.17855042 -124.74423599 327.49855042 C-124.02236099 327.24976135 -123.30048599 327.00097229 -122.55673599 326.74464417 C-119.4752853 325.37939032 -117.32155603 323.72358301 -114.74423599 321.56105042 C-112.2159324 319.44754663 -109.83219578 317.5506516 -106.99423599 315.86964417 C-104.62238066 314.69739912 -104.62238066 314.69739912 -103.74423599 312.49855042 C-102.08449426 311.4870984 -100.41615536 310.48974333 -98.74423599 309.49855042 C-96.57692052 307.87374194 -94.43436528 306.23578084 -92.30673599 304.56105042 C-89.05393636 302.00555294 -85.83050595 299.52281314 -82.33407974 297.30714417 C-81.4794313 296.71030823 -80.62478287 296.11347229 -79.74423599 295.49855042 C-79.74423599 294.83855042 -79.74423599 294.17855042 -79.74423599 293.49855042 C-79.03396255 293.26136292 -78.32368912 293.02417542 -77.59189224 292.77980042 C-74.26877129 291.28462391 -71.94584494 289.36668826 -69.18173599 286.99855042 C-66.12299028 284.38525311 -63.39567083 282.18508758 -59.74423599 280.49855042 C-59.31111099 280.04480042 -58.87798599 279.59105042 -58.43173599 279.12355042 C-54.14507858 274.99565809 -50.25560113 273.21156298 -44.36923599 272.87355042 C-38.32385631 273.07394974 -34.18806488 275.5094389 -29.74423599 279.49855042 C-29.41423599 280.15855042 -29.08423599 280.81855042 -28.74423599 281.49855042 C-27.08890977 282.51721271 -25.42163461 283.51665854 -23.74423599 284.49855042 C-23.08423599 285.15855042 -22.42423599 285.81855042 -21.74423599 286.49855042 C-20.75423599 286.49855042 -19.76423599 286.49855042 -18.74423599 286.49855042 C-18.74423599 287.15855042 -18.74423599 287.81855042 -18.74423599 288.49855042 C-16.75655387 290.01694154 -16.75655387 290.01694154 -14.30673599 291.49855042 C-9.84901959 294.28898322 -9.84901959 294.28898322 -8.74423599 296.49855042 C-7.08890977 297.51721271 -5.42163461 298.51665854 -3.74423599 299.49855042 C-3.08423599 300.15855042 -2.42423599 300.81855042 -1.74423599 301.49855042 C-0.75423599 301.49855042 0.23576401 301.49855042 1.25576401 301.49855042 C1.25576401 302.15855042 1.25576401 302.81855042 1.25576401 303.49855042 C3.49572046 305.22364237 5.73660729 306.84409169 8.06826401 308.43605042 C9.34745089 309.31749614 10.624856 310.20153433 11.90029526 311.08839417 C12.47110825 311.47889954 13.04192123 311.86940491 13.63003159 312.27174377 C15.25576401 313.49855042 15.25576401 313.49855042 16.7779808 315.14918518 C18.29147001 316.83569667 18.29147001 316.83569667 21.25576401 316.49855042 C21.25576401 317.15855042 21.25576401 317.81855042 21.25576401 318.49855042 C31.35223918 326.50024289 40.63750825 328.31095866 53.25576401 327.49855042 C61.44318615 326.47871362 69.29613567 322.11762856 75.25576401 316.49855042 C76.66145205 314.54872506 77.98526761 312.53904464 79.25576401 310.49855042 C80.14992312 309.18490925 81.04593638 307.87252925 81.94326401 306.56105042 C85.1260183 301.79499703 88.06141399 296.89198538 90.98867416 291.96681213 C93.04693743 288.50410759 95.14087735 285.07584556 97.31826401 281.68605042 C99.42890244 278.83540241 99.42890244 278.83540241 99.25576401 276.49855042 C99.91576401 276.49855042 100.57576401 276.49855042 101.25576401 276.49855042 C101.58576401 274.84855042 101.91576401 273.19855042 102.25576401 271.49855042 C102.91576401 271.49855042 103.57576401 271.49855042 104.25576401 271.49855042 C105.54714633 269.75963607 105.54714633 269.75963607 106.81826401 267.43605042 C107.61103745 266.07286682 107.61103745 266.07286682 108.41982651 264.68214417 C109.02568588 263.63155823 109.63154526 262.58097229 110.25576401 261.49855042 C111.72453396 258.99231598 113.20578303 256.49372037 114.69326401 253.99855042 C115.07635727 253.35530823 115.45945053 252.71206604 115.85415268 252.04933167 C118.65009756 247.39907219 121.67298687 242.96295972 124.84170151 238.55714417 C126.38612689 236.41007104 126.38612689 236.41007104 127.75576401 233.49855042 C129.65798617 229.69410608 132.09374712 226.40137743 134.56045151 222.94386292 C135.92656025 220.9733927 137.15915592 219.0302373 138.31826401 216.93605042 C139.87049492 214.18209234 141.48840787 211.61212196 143.25576401 208.99855042 C145.37199259 205.86124154 147.35506048 202.70216278 149.17763901 199.38136292 C150.01878592 197.91240346 150.91600197 196.47550842 151.83388901 195.05323792 C155.11715 189.93706219 155.11715 189.93706219 156.88076401 184.18605042 C156.06197924 180.6652759 154.84418017 179.01885036 152.25576401 176.49855042 C146.73284639 173.16178769 143.24141494 172.44907151 137.88076401 176.24855042 Z " fill="#000000" transform="translate(254.74423599243164,-0.4985504150390625)"/>
</svg>
