<?xml version="1.0" encoding="UTF-8"?>
<svg version="1.1" xmlns="http://www.w3.org/2000/svg" width="512" height="512">
<path d="M0 0 C1.06252487 -0.00686325 2.12504974 -0.0137265 3.21977234 -0.02079773 C6.724858 -0.0390682 10.22949617 -0.03522773 13.73461914 -0.02954102 C16.17550299 -0.03410264 18.61638554 -0.03940816 21.05726624 -0.04542542 C26.17071758 -0.05435701 31.28401274 -0.05193266 36.39746094 -0.04199219 C42.94570118 -0.03050208 49.49340221 -0.05071509 56.04157162 -0.07990932 C61.08166419 -0.0982675 66.12162745 -0.09797958 71.16174507 -0.0922718 C73.57583943 -0.09211855 75.98994252 -0.09816646 78.40400505 -0.11056328 C81.78139822 -0.12546368 85.15779399 -0.11480201 88.53515625 -0.09765625 C90.02613831 -0.1121582 90.02613831 -0.1121582 91.54724121 -0.12695312 C97.66940398 -0.06197134 101.45136296 0.58503271 106.33227539 4.40405273 C110.78974502 10.11156658 110.90345013 15.03461363 110.83398438 22.109375 C110.84208885 23.69116043 110.84208885 23.69116043 110.85035706 25.30490112 C110.86282458 28.77704264 110.84636671 32.24835189 110.82836914 35.72045898 C110.82852416 38.13988793 110.83001366 40.55931713 110.83277893 42.97874451 C110.83416201 48.0433961 110.82161871 53.10776418 110.79882812 58.17236328 C110.77042902 64.66120201 110.77318638 71.14957033 110.78591824 77.63844395 C110.79287556 82.63217684 110.78508567 87.62580116 110.77266121 92.61952019 C110.76814834 95.01210043 110.76780847 97.40469234 110.77172661 99.79727364 C110.77463964 103.14113359 110.75812696 106.48434681 110.73632812 109.828125 C110.7430806 111.30811729 110.7430806 111.30811729 110.74996948 112.81800842 C110.68485971 118.83472092 110.06214558 123.41114817 105.83227539 128.04858398 C101.77741362 131.20588521 99.01410936 132.5234686 93.91851807 132.55122375 C92.5644133 132.56195671 92.5644133 132.56195671 91.18295288 132.57290649 C90.19485626 132.5755954 89.20675964 132.5782843 88.1887207 132.58105469 C87.14614105 132.58762589 86.1035614 132.59419708 85.02938843 132.60096741 C81.57305837 132.62070644 78.11677178 132.63236433 74.66040039 132.64233398 C73.48037193 132.64640951 72.30034348 132.65048504 71.08455658 132.65468407 C64.83900629 132.67554726 58.593478 132.689848 52.34790039 132.69921875 C45.89714895 132.71028437 39.44674234 132.74468579 32.99611282 132.78439045 C28.03582111 132.81053561 23.07561182 132.81890874 18.11525726 132.82250023 C15.73743104 132.82737148 13.35960862 132.83900071 10.98184967 132.85753822 C7.65209118 132.8818843 4.32322844 132.88097248 0.9934082 132.87402344 C-0.47659134 132.89323853 -0.47659134 132.89323853 -1.97628784 132.9128418 C-8.08504485 132.86643331 -11.66851583 131.97608916 -16.66772461 128.40405273 C-20.38349086 124.39493652 -21.78338084 121.38544745 -21.82162476 115.95906067 C-21.83022522 115.04935516 -21.83882568 114.13964966 -21.84768677 113.20237732 C-21.85194672 112.20650101 -21.85620667 111.21062469 -21.8605957 110.18457031 C-21.86877319 109.13384338 -21.87695068 108.08311646 -21.88537598 107.00054932 C-21.91022722 103.51656668 -21.92674607 100.0326248 -21.94116211 96.54858398 C-21.94648579 95.35877111 -21.95180946 94.16895824 -21.95729446 92.94309044 C-21.98402583 86.64452127 -22.00340016 80.34597192 -22.01782227 74.04736328 C-22.03446308 67.54506675 -22.07923698 61.04327774 -22.13019371 54.54117298 C-22.16386841 49.53880742 -22.17540005 44.53656226 -22.18104935 39.53409386 C-22.18776191 37.13754082 -22.20298394 34.7409957 -22.22694016 32.34455299 C-22.25859538 28.98611876 -22.2586271 25.62905237 -22.2512207 22.27050781 C-22.26762604 21.28475266 -22.28403137 20.2989975 -22.30093384 19.28337097 C-22.24275606 12.82246853 -21.08152879 8.26648058 -16.66772461 3.40405273 C-11.55780052 -0.40989042 -6.12543672 -0.02768496 0 0 Z " fill="#020202" transform="translate(211.667724609375,377.595947265625)"/>
<path d="M0 0 C0.90970551 -0.00860046 1.81941101 -0.01720093 2.75668335 -0.02606201 C3.75255966 -0.03032196 4.74843597 -0.03458191 5.77449036 -0.03897095 C6.82521729 -0.04714844 7.87594421 -0.05532593 8.95851135 -0.06375122 C12.44249399 -0.08860247 15.92643587 -0.10512132 19.41047668 -0.11953735 C21.19519599 -0.12752287 21.19519599 -0.12752287 23.01597023 -0.13566971 C29.3145394 -0.16240107 35.61308875 -0.18177541 41.91169739 -0.19619751 C48.41399392 -0.21283832 54.91578293 -0.25761223 61.41788769 -0.30856895 C66.42025324 -0.34224366 71.42249841 -0.35377529 76.42496681 -0.35942459 C78.82151985 -0.36613715 81.21806497 -0.38135918 83.61450768 -0.4053154 C86.97294191 -0.43697062 90.33000829 -0.43700234 93.68855286 -0.42959595 C94.67430801 -0.44600128 95.66006317 -0.46240662 96.6756897 -0.47930908 C103.19547961 -0.42060105 107.57529449 0.84140075 112.55500793 5.15390015 C116.6733933 9.62206427 115.99148311 15.13984764 115.97492981 20.89169312 C115.98339935 21.9735791 115.9918689 23.05546509 116.00059509 24.1701355 C116.02398879 27.74557256 116.0249866 31.32057984 116.02375793 34.89608765 C116.03085834 37.3832415 116.03855716 39.87039371 116.04682922 42.35754395 C116.06027973 47.57112175 116.06184029 52.78454812 116.0559845 57.99813843 C116.05008047 63.34859685 116.06416032 68.69856013 116.09700012 74.04891968 C116.13614079 80.51273938 116.15079879 86.97613362 116.14620972 93.44006729 C116.14790225 95.90162102 116.1575575 98.36318273 116.175354 100.8246727 C116.19751714 104.26938116 116.1878532 107.7126142 116.17024231 111.15731812 C116.18350555 112.17157867 116.1967688 113.18583923 116.21043396 114.23083496 C116.14543221 119.70978769 115.62576266 123.52879497 112.00372314 127.78420258 C106.64446752 132.85114697 100.91266159 132.58478814 93.96321106 132.54208374 C92.38164467 132.54996918 92.38164467 132.54996918 90.76812744 132.55801392 C87.29068591 132.57119329 83.81370394 132.56248281 80.33625793 132.55233765 C77.9153993 132.55435897 75.49454125 132.55727089 73.07368469 132.56103516 C68.0031097 132.56545573 62.93269338 132.55903584 57.86213684 132.54501343 C51.36543904 132.52792194 44.86911306 132.53776452 38.37242889 132.55573082 C33.37441714 132.56657571 28.37649342 132.56311902 23.378479 132.55534744 C20.98310299 132.5533474 18.58771895 132.55579782 16.19235229 132.5627861 C12.84362135 132.57041192 9.49549107 132.55877975 6.14680481 132.54208374 C4.66445595 132.55119278 4.66445595 132.55119278 3.15216064 132.56048584 C-2.13434234 132.51170209 -5.88719124 132.14048864 -10.44499207 129.15390015 C-16.37918284 122.89003211 -16.74329917 117.22826791 -16.73551941 108.98275757 C-16.74223663 107.9609993 -16.74895386 106.93924103 -16.75587463 105.88652039 C-16.77486291 102.51075366 -16.77877935 99.13518569 -16.78092957 95.7593689 C-16.78735717 93.40913308 -16.7940855 91.05889807 -16.80110168 88.70866394 C-16.81307672 83.78178045 -16.81678229 78.85496709 -16.81559753 73.92807007 C-16.8153944 67.62317469 -16.84269077 61.31873031 -16.87714195 55.01394176 C-16.89940967 50.15911301 -16.9034351 45.30439279 -16.90237808 40.4495182 C-16.90473444 38.12555704 -16.9135599 35.8015929 -16.92904282 33.47768211 C-16.94869833 30.2225449 -16.94286563 26.96838011 -16.93083191 23.71322632 C-16.94207092 22.75866547 -16.95330994 21.80410461 -16.96488953 20.82061768 C-16.90832877 14.78175504 -15.89608267 10.18904061 -12.44499207 5.15390015 C-8.48731781 1.38928317 -5.40952074 0.03812504 0 0 Z " fill="#020202" transform="translate(396.4449920654297,189.84609985351563)"/>
<path d="M0 0 C1.05437759 -0.00525696 2.10875519 -0.01051392 3.19508362 -0.01593018 C6.67252515 -0.02910955 10.14950712 -0.02039907 13.62695312 -0.01025391 C16.04781176 -0.01227523 18.46866981 -0.01518715 20.88952637 -0.01895142 C25.96010136 -0.02337199 31.03051768 -0.0169521 36.10107422 -0.00292969 C42.59777202 0.0141618 49.094098 0.00431922 55.59078217 -0.01364708 C60.58879392 -0.02449197 65.58671764 -0.02103528 70.58473206 -0.0132637 C72.98010807 -0.01126366 75.37549211 -0.01371408 77.77085876 -0.02070236 C81.1195897 -0.02832818 84.46771999 -0.01669601 87.81640625 0 C89.29875511 -0.00910904 89.29875511 -0.00910904 90.81105042 -0.0184021 C96.0975534 0.03038165 99.8504023 0.4015951 104.40820312 3.38818359 C110.3423939 9.65205163 110.70651023 15.31381583 110.69873047 23.55932617 C110.70544769 24.58108444 110.71216492 25.60284271 110.71908569 26.65556335 C110.73807397 30.03133008 110.74199041 33.40689805 110.74414062 36.78271484 C110.75056823 39.13295066 110.75729656 41.48318567 110.76431274 43.8334198 C110.77628778 48.76030329 110.77999335 53.68711665 110.77880859 58.61401367 C110.77860546 64.91890905 110.80590183 71.22335343 110.84035301 77.52814198 C110.86262073 82.38297073 110.86664616 87.23769095 110.86558914 92.09256554 C110.8679455 94.4165267 110.87677096 96.74049084 110.89225388 99.06440163 C110.91190939 102.31953884 110.90607669 105.57370363 110.89404297 108.82885742 C110.90528198 109.78341827 110.916521 110.73797913 110.92810059 111.72146606 C110.87153983 117.7603287 109.85929373 122.35304313 106.40820312 127.38818359 C102.45052887 131.15280057 99.3727318 132.5039587 93.96321106 132.54208374 C92.5986528 132.55498444 92.5986528 132.55498444 91.20652771 132.56814575 C90.2106514 132.5724057 89.21477509 132.57666565 88.1887207 132.58105469 C86.61263031 132.59332092 86.61263031 132.59332092 85.00469971 132.60583496 C81.52071707 132.63068621 78.03677519 132.64720506 74.55273438 132.66162109 C73.3629215 132.66694477 72.17310863 132.67226845 70.94724083 132.67775345 C64.64867166 132.70448481 58.35012231 132.72385915 52.05151367 132.73828125 C45.54921714 132.75492206 39.04742813 132.79969597 32.54532337 132.85065269 C27.54295782 132.8843274 22.54071265 132.89585903 17.53824425 132.90150833 C15.14169121 132.90822089 12.74514609 132.92344292 10.34870338 132.94739914 C6.99026915 132.97905436 3.63320276 132.97908608 0.2746582 132.97167969 C-0.71109695 132.98808502 -1.69685211 133.00449036 -2.71247864 133.02139282 C-9.23226855 132.96268479 -13.61208343 131.70068299 -18.59179688 127.38818359 C-22.71018224 122.92001947 -22.02827205 117.4022361 -22.01171875 111.65039062 C-22.02018829 110.56850464 -22.02865784 109.48661865 -22.03738403 108.37194824 C-22.06077773 104.79651118 -22.06177554 101.2215039 -22.06054688 97.64599609 C-22.06764728 95.15884224 -22.0753461 92.67169003 -22.08361816 90.18453979 C-22.09706867 84.97096199 -22.09862923 79.75753562 -22.09277344 74.54394531 C-22.08686941 69.19348689 -22.10094926 63.84352361 -22.13378906 58.49316406 C-22.17292973 52.02934436 -22.18758773 45.56595012 -22.18299866 39.10201645 C-22.18469119 36.64046272 -22.19434644 34.17890101 -22.21214294 31.71741104 C-22.23430608 28.27270258 -22.22464215 24.82946954 -22.20703125 21.38476562 C-22.22029449 20.37050507 -22.23355774 19.35624451 -22.2472229 18.31124878 C-22.18222115 12.83229605 -21.6625516 9.01328877 -18.04051208 4.75788116 C-12.68125646 -0.30906323 -6.94945054 -0.0427044 0 0 Z " fill="#020202" transform="translate(21.591796875,189.61181640625)"/>
<path d="M0 0 C0.90273651 -0.0071553 1.80547302 -0.01431061 2.73556519 -0.02168274 C4.21771011 -0.02571609 4.21771011 -0.02571609 5.72979736 -0.02983093 C7.29366684 -0.03968773 7.29366684 -0.03968773 8.88912964 -0.04974365 C12.34545969 -0.06948269 15.80174629 -0.08114057 19.25811768 -0.09111023 C20.43814613 -0.09518576 21.61817459 -0.09926128 22.83396149 -0.10346031 C29.07951177 -0.1243235 35.32504007 -0.13862424 41.57061768 -0.147995 C48.02136911 -0.15906062 54.47177572 -0.19346203 60.92240524 -0.23316669 C65.88269696 -0.25931186 70.84290624 -0.26768499 75.8032608 -0.27127647 C78.18108703 -0.27614773 80.55890944 -0.28777695 82.9366684 -0.30631447 C86.26642688 -0.33066055 89.59528962 -0.32974872 92.92510986 -0.32279968 C93.90510956 -0.33560974 94.88510925 -0.3484198 95.89480591 -0.36161804 C102.00356292 -0.31520955 105.5870339 0.57513459 110.58624268 4.14717102 C114.30200893 8.15628724 115.70189891 11.1657763 115.74014282 16.59216309 C115.74874329 17.50186859 115.75734375 18.4115741 115.76620483 19.34884644 C115.77259476 20.8426609 115.77259476 20.8426609 115.77911377 22.36665344 C115.79138 23.94274384 115.79138 23.94274384 115.80389404 25.55067444 C115.82874529 29.03465708 115.84526414 32.51859896 115.85968018 36.00263977 C115.86500385 37.19245264 115.87032753 38.38226551 115.87581253 39.60813332 C115.9025439 45.90670248 115.92191823 52.20525184 115.93634033 58.50386047 C115.95298115 65.006157 115.99775505 71.50794602 116.04871178 78.01005077 C116.08238648 83.01241633 116.09391812 88.0146615 116.09956741 93.0171299 C116.10627998 95.41368294 116.12150201 97.81022806 116.14545822 100.20667076 C116.17711344 103.56510499 116.17714516 106.92217138 116.16973877 110.28071594 C116.1861441 111.2664711 116.20254944 112.25222626 116.2194519 113.26785278 C116.16127413 119.72875522 115.00004685 124.28474318 110.58624268 129.14717102 C105.47631859 132.96111418 100.04395479 132.57890871 93.91851807 132.55122375 C92.32473076 132.56151863 92.32473076 132.56151863 90.69874573 132.57202148 C87.19366007 132.59029196 83.68902189 132.58645149 80.18389893 132.58076477 C77.74301508 132.5853264 75.30213252 132.59063192 72.86125183 132.59664917 C67.74780049 132.60558076 62.63450533 132.60315641 57.52105713 132.59321594 C50.97281689 132.58172584 44.42511586 132.60193884 37.87694645 132.63113308 C32.83685388 132.64949125 27.79689061 132.64920333 22.75677299 132.64349556 C20.34267864 132.6433423 17.92857554 132.64939022 15.51451302 132.66178703 C12.13711984 132.67668744 8.76072408 132.66602576 5.38336182 132.64888 C4.38937378 132.65854797 3.39538574 132.66821594 2.37127686 132.67817688 C-3.75088592 132.61319509 -7.5328449 131.96619104 -12.41375732 128.14717102 C-16.87122695 122.43965718 -16.98493206 117.51661013 -16.91546631 110.44184875 C-16.92086929 109.38732513 -16.92627228 108.33280151 -16.93183899 107.24632263 C-16.94430651 103.77418111 -16.92784864 100.30287187 -16.90985107 96.83076477 C-16.9100061 94.41133582 -16.91149559 91.99190662 -16.91426086 89.57247925 C-16.91564394 84.50782766 -16.90310064 79.44345958 -16.88031006 74.37886047 C-16.85191096 67.89002174 -16.85466831 61.40165343 -16.86740017 54.91277981 C-16.8743575 49.91904692 -16.86656761 44.9254226 -16.85414314 39.93170357 C-16.84963027 37.53912332 -16.8492904 35.14653141 -16.85320854 32.75395012 C-16.85612157 29.41009017 -16.83960889 26.06687695 -16.81781006 22.72309875 C-16.82231171 21.73643723 -16.82681335 20.7497757 -16.83145142 19.73321533 C-16.76634164 13.71650283 -16.14362752 9.14007558 -11.91375732 4.50263977 C-7.85889556 1.34533855 -5.09559129 0.02775515 0 0 Z " fill="#020202" transform="translate(206.41375732421875,1.8528289794921875)"/>
<path d="M0 0 C0.92804947 -0.0071553 1.85609894 -0.01431061 2.81227112 -0.02168274 C3.83358627 -0.02437164 4.85490143 -0.02706055 5.90716553 -0.02983093 C6.98046616 -0.03640213 8.05376678 -0.04297333 9.15959167 -0.04974365 C12.72356225 -0.06950915 16.28749063 -0.08114661 19.85150146 -0.09111023 C21.06679283 -0.09518576 22.2820842 -0.09926128 23.53420258 -0.10346031 C29.96662731 -0.12433507 36.39903063 -0.13863063 42.83148193 -0.147995 C49.48077132 -0.15906141 56.12971803 -0.19346037 62.77890396 -0.23316669 C67.8867048 -0.25929415 72.9944255 -0.26768342 78.10228729 -0.27127647 C80.55350757 -0.27615254 83.00472404 -0.28779534 85.45587921 -0.30631447 C88.88652646 -0.3306223 92.31630255 -0.32975567 95.74700928 -0.32279968 C96.76022751 -0.33560974 97.77344574 -0.3484198 98.81736755 -0.36161804 C104.56606307 -0.31912186 108.15622714 0.10829119 112.58587646 4.14717102 C117.34343844 9.37972069 117.15746781 14.205474 117.10345459 20.92256165 C117.11046387 21.99644638 117.11747314 23.07033112 117.12469482 24.17675781 C117.1422703 27.71924351 117.13065292 31.26092748 117.11712646 34.80342102 C117.11982149 37.26912082 117.12370399 39.73481958 117.12872314 42.20051575 C117.13461762 47.36529164 117.12605643 52.52979062 117.10736084 57.6945343 C117.08457185 64.31239617 117.09769513 70.92960914 117.1216507 77.5474472 C117.13610972 82.63812645 117.13150208 87.72865204 117.12113953 92.81933594 C117.11847256 95.25936968 117.12174092 97.6994174 117.13105774 100.13943481 C117.14122449 103.55059222 117.12571881 106.96070102 117.10345459 110.3717804 C117.11155151 111.37871445 117.11964844 112.3856485 117.12799072 113.4230957 C117.05843657 119.17985083 116.49167879 122.6112777 112.58587646 127.14717102 C108.55399883 130.78569474 105.62715551 132.26454305 100.21681213 132.29434204 C99.32393494 132.30149734 98.43105774 132.30865265 97.51112366 132.31602478 C96.0453614 132.32005814 96.0453614 132.32005814 94.54998779 132.32417297 C93.51876801 132.33074417 92.48754822 132.33731537 91.42507935 132.34408569 C88.00602141 132.36382583 84.58700744 132.37548353 81.16790771 132.38545227 C79.4162861 132.39156556 79.4162861 132.39156556 77.62927818 132.39780235 C71.44741365 132.4186671 65.26557134 132.43296655 59.0836792 132.44233704 C52.70252657 132.4533964 46.32172312 132.48779015 39.94069386 132.52750874 C35.03097389 132.55367234 30.12133712 132.56202873 25.21155357 132.56561852 C22.85967338 132.57048585 20.50779693 132.58210395 18.15598488 132.60065651 C14.85995573 132.62503936 11.56482978 132.62408392 8.26873779 132.61714172 C6.81815727 132.63635681 6.81815727 132.63635681 5.33827209 132.65596008 C-0.67869523 132.60989414 -5.44701934 131.71292959 -10.41412354 128.14717102 C-13.85815095 123.82005965 -15.53328894 120.31555958 -15.55456543 114.80934143 C-15.56027557 113.92343323 -15.56598572 113.03752502 -15.5718689 112.12477112 C-15.57298676 111.15537598 -15.57410461 110.18598083 -15.57525635 109.18721008 C-15.58022125 108.16413757 -15.58518616 107.14106506 -15.59030151 106.08699036 C-15.60493031 102.69558545 -15.61172675 99.30422733 -15.61724854 95.91279602 C-15.62299989 93.55730691 -15.62875762 91.20181782 -15.63452148 88.84632874 C-15.64503385 83.903313 -15.65087482 78.96031355 -15.65435791 74.01728821 C-15.65983968 67.68766635 -15.68386016 61.35825993 -15.71232986 55.0287056 C-15.73096761 50.16106033 -15.73616248 45.29346681 -15.73769379 40.42578888 C-15.74071883 38.09263177 -15.74874231 35.75947554 -15.76187897 33.42635345 C-15.77896096 30.15897315 -15.77705357 26.89211711 -15.77056885 23.62471008 C-15.77978363 22.66341187 -15.78899841 21.70211365 -15.79849243 20.71168518 C-15.75989189 14.49315878 -15.15910003 9.26233519 -10.87896729 4.40498352 C-6.94613224 1.48804704 -4.86075977 0.02567927 0 0 Z " fill="#020202" transform="translate(395.41412353515625,377.8528289794922)"/>
<path d="M0 0 C1.6108271 -0.01051392 1.6108271 -0.01051392 3.25419617 -0.02124023 C6.79668186 -0.03881571 10.33836584 -0.02719833 13.88085938 -0.01367188 C16.34655917 -0.0163669 18.81225794 -0.0202494 21.2779541 -0.02526855 C26.44273 -0.03116303 31.60722897 -0.02260184 36.77197266 -0.00390625 C43.38983453 0.01888274 50.00704749 0.00575946 56.62488556 -0.01819611 C61.71556481 -0.03265513 66.8060904 -0.02804749 71.89677429 -0.01768494 C74.33680803 -0.01501797 76.77685576 -0.01828633 79.21687317 -0.02760315 C82.62803057 -0.0377699 86.03813938 -0.02226422 89.44921875 0 C90.4561528 -0.00809692 91.46308685 -0.01619385 92.50053406 -0.02453613 C98.25905693 0.04503938 101.68444574 0.61527575 106.22460938 4.51757812 C110.27406803 8.89537127 111.33919425 12.11580986 111.3717804 17.96893311 C111.38251335 19.29768967 111.38251335 19.29768967 111.39346313 20.65328979 C111.39615204 21.61751862 111.39884094 22.58174744 111.40161133 23.57519531 C111.40818253 24.59680756 111.41475372 25.6184198 111.42152405 26.67098999 C111.44123591 30.05214513 111.45291473 33.43325591 111.46289062 36.81445312 C111.46696615 37.97025124 111.47104168 39.12604935 111.47524071 40.31687164 C111.496092 46.43390219 111.51039806 52.55091036 111.51977539 58.66796875 C111.53084041 64.98071294 111.56524453 71.29310472 111.60494709 77.60572433 C111.63110981 82.46483001 111.63946693 87.32385163 111.64305687 92.18302155 C111.64792333 94.50978222 111.65953892 96.83653913 111.67809486 99.1632309 C111.70247906 102.42323138 111.70152222 105.68231878 111.69458008 108.94238281 C111.71379517 110.37658066 111.71379517 110.37658066 111.73339844 111.8397522 C111.68703453 117.82980767 110.76726277 122.57107514 107.22460938 127.51757812 C102.87830811 130.97687913 99.36994945 132.63689786 93.84208679 132.65802002 C92.94631927 132.66373016 92.05055176 132.66944031 91.12763977 132.67532349 C89.65716438 132.67700027 89.65716438 132.67700027 88.15698242 132.67871094 C87.12255005 132.68367584 86.08811768 132.68864075 85.02233887 132.6937561 C81.5936619 132.70838409 78.1650312 132.71518084 74.73632812 132.72070312 C72.35602314 132.72645408 69.97571816 132.73221182 67.59541321 132.73797607 C62.60112288 132.7484879 57.60684866 132.75432937 52.61254883 132.7578125 C46.21332739 132.76329737 39.8143187 132.78732471 33.41516399 132.81578445 C28.496947 132.83440908 23.57878128 132.83961635 18.660532 132.84114838 C16.30142872 132.84417585 13.94232637 132.85220753 11.58325768 132.86533356 C8.28214716 132.88238984 4.98155664 132.88051456 1.68041992 132.87402344 C0.70617569 132.88323822 -0.26806854 132.892453 -1.27183533 132.90194702 C-7.26141033 132.8650571 -11.84357198 132.25440646 -16.41992188 127.98242188 C-19.42271679 124.05569007 -20.89665182 122.00785566 -20.92256165 117.10345459 C-20.92971695 116.17540512 -20.93687225 115.24735565 -20.94424438 114.29118347 C-20.94693329 113.26986832 -20.94962219 112.24855316 -20.95239258 111.19628906 C-20.95896378 110.12298843 -20.96553497 109.04968781 -20.9723053 107.94386292 C-20.9920708 104.37989234 -21.00370825 100.81596396 -21.01367188 97.25195312 C-21.0177474 96.03666176 -21.02182293 94.82137039 -21.02602196 93.56925201 C-21.04689672 87.13682728 -21.06119228 80.70442396 -21.07055664 74.27197266 C-21.08162305 67.62268327 -21.11602202 60.97373656 -21.15572834 54.32455063 C-21.1818558 49.21674979 -21.19024507 44.10902909 -21.19383812 39.0011673 C-21.19871418 36.54994702 -21.21035698 34.09873055 -21.22887611 31.64757538 C-21.25318395 28.21692813 -21.25231731 24.78715204 -21.24536133 21.35644531 C-21.25817139 20.34322708 -21.27098145 19.33000885 -21.28417969 18.28608704 C-21.2416835 12.53739152 -20.81427046 8.94722745 -16.77539062 4.51757812 C-11.54284096 -0.23998385 -6.71708765 -0.05401322 0 0 Z " fill="#020202" transform="translate(20.775390625,377.482421875)"/>
<path d="M0 0 C0.89576752 -0.00571014 1.79153503 -0.01142029 2.71444702 -0.01730347 C3.69476395 -0.01842133 4.67508087 -0.01953918 5.68510437 -0.02069092 C6.71953674 -0.02565582 7.75396912 -0.03062073 8.81974792 -0.03573608 C12.24842489 -0.05036407 15.67705559 -0.05716082 19.10575867 -0.06268311 C21.48606366 -0.06843406 23.86636863 -0.0741918 26.24667358 -0.07995605 C31.24096391 -0.09046788 36.23523813 -0.09630935 41.22953796 -0.09979248 C47.62875941 -0.10527735 54.02776809 -0.12930469 60.4269228 -0.15776443 C65.34513979 -0.17638906 70.26330552 -0.18159633 75.18155479 -0.18312836 C77.54065807 -0.18615583 79.89976042 -0.19418751 82.25882912 -0.20731354 C85.55993963 -0.22436982 88.86053015 -0.22249454 92.16166687 -0.21600342 C93.62303322 -0.22982559 93.62303322 -0.22982559 95.11392212 -0.243927 C101.10349713 -0.20703708 105.68565877 0.40361356 110.26200867 4.67559814 C113.26480358 8.60232995 114.73873861 10.65016436 114.76464844 15.55456543 C114.77538139 16.94663963 114.77538139 16.94663963 114.78633118 18.36683655 C114.78902008 19.3881517 114.79170898 20.40946686 114.79447937 21.46173096 C114.80105057 22.53503159 114.80762177 23.60833221 114.81439209 24.7141571 C114.83415759 28.27812768 114.84579504 31.84205606 114.85575867 35.40606689 C114.85983419 36.62135826 114.86390972 37.83664963 114.86810875 39.08876801 C114.88898351 45.52119274 114.90327907 51.95359606 114.91264343 58.38604736 C114.92370984 65.03533675 114.95810881 71.68428346 114.99781513 78.33346939 C115.02394259 83.44127023 115.03233186 88.54899093 115.03592491 93.65685272 C115.04080097 96.108073 115.05244378 98.55928947 115.07096291 101.01044464 C115.09527074 104.44109189 115.0944041 107.87086798 115.08744812 111.30157471 C115.10666321 112.82140205 115.10666321 112.82140205 115.12626648 114.37193298 C115.08377029 120.1206285 114.65635725 123.71079257 110.61747742 128.14044189 C105.38492775 132.89800387 100.55917444 132.71203324 93.84208679 132.65802002 C92.23125969 132.66853394 92.23125969 132.66853394 90.58789062 132.67926025 C87.04540493 132.69683573 83.50372095 132.68521835 79.96122742 132.67169189 C77.49552762 132.67438692 75.02982885 132.67826942 72.56413269 132.68328857 C67.39935679 132.68918305 62.23485782 132.68062186 57.07011414 132.66192627 C50.45225227 132.63913728 43.8350393 132.65226056 37.21720123 132.67621613 C32.12652198 132.69067515 27.03599639 132.68606751 21.9453125 132.67570496 C19.50527876 132.67303799 17.06523103 132.67630635 14.62521362 132.68562317 C11.21405622 132.69578992 7.80394742 132.68028424 4.39286804 132.65802002 C3.38593399 132.66611694 2.37899994 132.67421387 1.34155273 132.68255615 C-4.41697014 132.61298064 -7.84235895 132.04274427 -12.38252258 128.14044189 C-16.43198124 123.76264875 -17.49710746 120.54221016 -17.5296936 114.68908691 C-17.53684891 113.80324921 -17.54400421 112.9174115 -17.55137634 112.00473022 C-17.55406525 111.0405014 -17.55675415 110.07627258 -17.55952454 109.08282471 C-17.56609573 108.06121246 -17.57266693 107.03960022 -17.57943726 105.98703003 C-17.59914912 102.60587489 -17.61082794 99.22476411 -17.62080383 95.84356689 C-17.62487936 94.68776878 -17.62895489 93.53197067 -17.63315392 92.34114838 C-17.6540052 86.22411783 -17.66831127 80.10710966 -17.6776886 73.99005127 C-17.68875362 67.67730708 -17.72315773 61.3649153 -17.7628603 55.05229568 C-17.78902301 50.19319001 -17.79738014 45.33416839 -17.80097008 40.47499847 C-17.80583653 38.1482378 -17.81745213 35.82148089 -17.83600807 33.49478912 C-17.86039227 30.23478864 -17.85943543 26.97570124 -17.85249329 23.71563721 C-17.86530334 22.75950531 -17.8781134 21.80337341 -17.89131165 20.81826782 C-17.84494774 14.82821235 -16.92517598 10.08694488 -13.38252258 5.14044189 C-9.03622132 1.68114089 -5.52786266 0.02112216 0 0 Z " fill="#020202" transform="translate(397.3825225830078,1.85955810546875)"/>
<path d="M0 0 C0.8928772 -0.0071553 1.78575439 -0.01431061 2.70568848 -0.02168274 C3.68286331 -0.02437164 4.66003815 -0.02706055 5.66682434 -0.02983093 C7.21365402 -0.03968773 7.21365402 -0.03968773 8.79173279 -0.04974365 C12.21079072 -0.06948379 15.62980469 -0.08114149 19.04890442 -0.09111023 C20.80052604 -0.09722352 20.80052604 -0.09722352 22.58753395 -0.10346031 C28.76939848 -0.12432506 34.9512408 -0.13862451 41.13313293 -0.147995 C47.51428557 -0.15905436 53.89508901 -0.19344811 60.27611828 -0.23316669 C65.18583824 -0.2593303 70.09547502 -0.26768668 75.00525856 -0.27127647 C77.35713875 -0.27614381 79.7090152 -0.28776191 82.06082726 -0.30631447 C85.3568564 -0.33069732 88.65198235 -0.32974188 91.94807434 -0.32279968 C93.39865486 -0.34201477 93.39865486 -0.34201477 94.87854004 -0.36161804 C100.89550737 -0.3155521 105.66383148 0.58141245 110.63093567 4.14717102 C114.07496308 8.47428239 115.75010107 11.97878246 115.77137756 17.48500061 C115.77708771 18.37090881 115.78279785 19.25681702 115.78868103 20.16957092 C115.79035782 21.62366364 115.79035782 21.62366364 115.79206848 23.10713196 C115.79703339 24.13020447 115.80199829 25.15327698 115.80711365 26.20735168 C115.82174244 29.5987566 115.82853889 32.99011471 115.83406067 36.38154602 C115.83981202 38.73703513 115.84556976 41.09252423 115.85133362 43.44801331 C115.86184599 48.39102904 115.86768695 53.33402849 115.87117004 58.27705383 C115.87665182 64.60667569 115.9006723 70.93608211 115.929142 77.26563644 C115.94777975 82.13328171 115.95297462 87.00087523 115.95450592 91.86855316 C115.95753096 94.20171027 115.96555445 96.5348665 115.9786911 98.86798859 C115.9957731 102.1353689 115.99386571 105.40222493 115.98738098 108.66963196 C115.99659576 109.63093018 116.00581055 110.59222839 116.01530457 111.58265686 C115.97670402 117.80118326 115.37591217 123.03200685 111.09577942 127.88935852 C107.16294437 130.806295 105.07757191 132.26866277 100.21681213 132.29434204 C98.82473793 132.305075 98.82473793 132.305075 97.40454102 132.31602478 C96.38322586 132.31871368 95.36191071 132.32140259 94.30964661 132.32417297 C93.23634598 132.33074417 92.16304535 132.33731537 91.05722046 132.34408569 C87.49324988 132.36385119 83.9293215 132.37548865 80.36531067 132.38545227 C79.1500193 132.3895278 77.93472794 132.39360332 76.68260956 132.39780235 C70.25018482 132.41867711 63.81778151 132.43297267 57.3853302 132.44233704 C50.73604081 132.45340345 44.08709411 132.48780241 37.43790817 132.52750874 C32.33010733 132.55363619 27.22238663 132.56202547 22.11452484 132.56561852 C19.66330456 132.57049458 17.2120881 132.58213738 14.76093292 132.60065651 C11.33028567 132.62496434 7.90050959 132.62409771 4.46980286 132.61714172 C2.94997551 132.63635681 2.94997551 132.63635681 1.39944458 132.65596008 C-4.34925094 132.6134639 -7.939415 132.18605085 -12.36906433 128.14717102 C-17.12662631 122.91462135 -16.94065567 118.08886804 -16.88664246 111.3717804 C-16.89365173 110.29789566 -16.90066101 109.22401093 -16.90788269 108.11758423 C-16.92545817 104.57509853 -16.91384078 101.03341456 -16.90031433 97.49092102 C-16.90300935 95.02522122 -16.90689186 92.55952246 -16.91191101 90.09382629 C-16.91780549 84.9290504 -16.90924429 79.76455142 -16.89054871 74.59980774 C-16.86775972 67.98194587 -16.88088299 61.3647329 -16.90483856 54.74689484 C-16.91929759 49.65621559 -16.91468995 44.56569 -16.90432739 39.4750061 C-16.90166042 37.03497236 -16.90492878 34.59492464 -16.91424561 32.15490723 C-16.92441236 28.74374982 -16.90890667 25.33364102 -16.88664246 21.92256165 C-16.89473938 20.91562759 -16.9028363 19.90869354 -16.91117859 18.87124634 C-16.84162443 13.11449121 -16.27486665 9.68306434 -12.36906433 5.14717102 C-8.3371867 1.5086473 -5.41034338 0.02979899 0 0 Z " fill="#020202" transform="translate(16.369064331054688,1.8528289794921875)"/>
<path d="M0 0 C1.35627251 -0.00856522 1.35627251 -0.00856522 2.73994446 -0.01730347 C3.72961212 -0.01842133 4.71927979 -0.01953918 5.73893738 -0.02069092 C6.78312332 -0.02565582 7.82730927 -0.03062073 8.90313721 -0.03573608 C12.36427973 -0.05036456 15.82537642 -0.05716089 19.2865448 -0.06268311 C21.68927004 -0.06843401 24.09199526 -0.07419175 26.49472046 -0.07995605 C31.53608921 -0.09046801 36.57744201 -0.0963094 41.61882019 -0.09979248 C48.07857492 -0.10527744 54.53811888 -0.1293049 60.9978075 -0.15776443 C65.96234758 -0.17638842 70.92683686 -0.1815963 75.89140892 -0.18312836 C78.27284078 -0.18615597 80.65427172 -0.1941881 83.03566933 -0.20731354 C86.36791135 -0.2243685 89.69963817 -0.22249486 93.03190613 -0.21600342 C94.0155011 -0.2252182 94.99909607 -0.23443298 96.01249695 -0.243927 C102.03136562 -0.20719844 106.58429906 0.40846479 111.2240448 4.64044189 C114.38459435 8.69947543 115.70064732 11.45995069 115.71995544 16.56092834 C115.72566559 17.46511002 115.73137573 18.36929169 115.73725891 19.3008728 C115.7389357 20.7853743 115.7389357 20.7853743 115.74064636 22.29986572 C115.74561127 23.34405167 115.75057617 24.38823761 115.75569153 25.46406555 C115.77032001 28.92520807 115.77711634 32.38630476 115.78263855 35.84747314 C115.78838946 38.25019838 115.7941472 40.6529236 115.7999115 43.0556488 C115.81042345 48.09701756 115.81626485 53.13837036 115.81974792 58.17974854 C115.82523288 64.63950326 115.84926034 71.09904723 115.87771988 77.55873585 C115.89634386 82.52327592 115.90155174 87.48776521 115.9030838 92.45233727 C115.90611141 94.83376912 115.91414355 97.21520006 115.92726898 99.59659767 C115.94432394 102.92883969 115.9424503 106.26056651 115.93595886 109.59283447 C115.94517365 110.57642944 115.95438843 111.56002441 115.96388245 112.57342529 C115.92715388 118.59229396 115.31149066 123.14522741 111.07951355 127.78497314 C107.02048002 130.94552269 104.26000475 132.26157567 99.1590271 132.28088379 C98.25484543 132.28659393 97.35066376 132.29230408 96.41908264 132.29818726 C94.93458115 132.29986404 94.93458115 132.29986404 93.42008972 132.30157471 C91.85381081 132.30902206 91.85381081 132.30902206 90.25588989 132.31661987 C86.79474737 132.33124835 83.33365068 132.33804468 79.8724823 132.34356689 C77.46975706 132.3493178 75.06703184 132.35507554 72.66430664 132.36083984 C67.62293788 132.3713518 62.58158509 132.37719319 57.54020691 132.38067627 C51.08045218 132.38616123 44.62090822 132.41018869 38.1612196 132.43864822 C33.19667952 132.45727221 28.23219024 132.46248009 23.26761818 132.46401215 C20.88618632 132.46703976 18.50475538 132.47507189 16.12335777 132.48819733 C12.79111575 132.50525229 9.45938893 132.50337865 6.12712097 132.49688721 C5.143526 132.50610199 4.15993103 132.51531677 3.14653015 132.52481079 C-2.87233852 132.48808223 -7.42527197 131.872419 -12.0650177 127.64044189 C-15.22556725 123.58140836 -16.54162023 120.82093309 -16.56092834 115.71995544 C-16.56663849 114.81577377 -16.57234863 113.9115921 -16.57823181 112.98001099 C-16.57934967 111.99034332 -16.58046753 111.00067566 -16.58161926 109.98101807 C-16.58658417 108.93683212 -16.59154907 107.89264618 -16.59666443 106.81681824 C-16.61129291 103.35567572 -16.61808924 99.89457903 -16.62361145 96.43341064 C-16.62936236 94.03068541 -16.6351201 91.62796019 -16.6408844 89.22523499 C-16.65139635 84.18386623 -16.65723775 79.14251343 -16.66072083 74.10113525 C-16.66620578 67.64138053 -16.69023324 61.18183656 -16.71869278 54.72214794 C-16.73731676 49.75760787 -16.74252464 44.79311858 -16.7440567 39.82854652 C-16.74708431 37.44711467 -16.75511645 35.06568373 -16.76824188 32.68428612 C-16.78529684 29.3520441 -16.7834232 26.02031728 -16.77693176 22.68804932 C-16.78614655 21.70445435 -16.79536133 20.72085938 -16.80485535 19.7074585 C-16.76812678 13.68858982 -16.15246356 9.13565638 -11.92048645 4.49591064 C-7.86145292 1.3353611 -5.10097765 0.01930812 0 0 Z " fill="#020202" transform="translate(206.4204864501953,189.85955810546875)"/>
</svg>
