<?xml version="1.0" encoding="UTF-8"?>
<svg version="1.1" xmlns="http://www.w3.org/2000/svg" width="203" height="192">
<path d="M0 0 C7.44620738 4.3751727 10.43336694 11.63951177 13.88671875 19.21875 C19.02536134 30.55505767 19.02536134 30.55505767 25.57421875 41.09375 C28.95515763 42.22072963 32.29153553 42.69083295 35.8046875 43.1796875 C37.26242326 43.3902552 38.72010384 43.60120513 40.17773438 43.8125 C42.46341361 44.14108625 44.74935407 44.46702476 47.03637695 44.78613281 C68.87817198 47.84715886 68.87817198 47.84715886 74.375 55.015625 C77.00996486 59.58175303 77.98432769 64.27787717 77.22216797 69.51098633 C75.36088928 76.36500996 72.32899885 80.22948762 67.13671875 84.96875 C66.46833984 85.60554688 65.79996094 86.24234375 65.11132812 86.8984375 C63.83389607 88.1138337 62.54866803 89.32110879 61.25439453 90.51855469 C59.87046575 91.81601306 58.54034966 93.17062529 57.2265625 94.5390625 C55.57421875 96.09375 55.57421875 96.09375 53.57421875 96.09375 C53.23390625 96.9290625 53.23390625 96.9290625 52.88671875 97.78125 C51.57421875 100.09375 51.57421875 100.09375 48.88671875 102.09375 C45.77922932 106.12508763 46.28710367 108.25855258 46.91015625 113.17578125 C47.91976228 119.13245683 48.99963918 125.07856248 50.20092773 130.99975586 C51.79026135 139.12390556 53.37619912 147.77093762 49.01953125 155.265625 C45.57311546 159.62487524 41.48307693 162.32971447 36.10546875 163.7421875 C25.43781319 164.67400079 15.49701612 157.42566355 6.67578125 152.1953125 C5.84755859 151.7214209 5.01933594 151.2475293 4.16601562 150.75927734 C2.55723938 149.83610982 0.96585344 148.8817423 -0.60351562 147.89306641 C-3.81041982 146.06501976 -6.08184754 144.8587618 -9.80224609 145.50927734 C-12.46915282 146.52749288 -14.9108947 147.74296548 -17.42578125 149.09375 C-18.37662598 149.56876953 -19.3274707 150.04378906 -20.30712891 150.53320312 C-23.32699411 152.05622263 -26.31536959 153.62936633 -29.30078125 155.21875 C-31.31892197 156.28402175 -33.33714765 157.34913255 -35.35546875 158.4140625 C-36.23444824 158.88086426 -37.11342773 159.34766602 -38.01904297 159.82861328 C-38.8132666 160.2461084 -39.60749023 160.66360352 -40.42578125 161.09375 C-41.1429834 161.47208984 -41.86018555 161.85042969 -42.59912109 162.24023438 C-46.90496703 164.25216132 -52.2107117 163.73485332 -56.6796875 162.44140625 C-61.76675734 160.19228429 -64.79524404 156.95967934 -67.42578125 152.09375 C-69.871284 144.75724174 -68.2599248 136.51282572 -67.05078125 129.03125 C-66.92445312 128.19787109 -66.798125 127.36449219 -66.66796875 126.50585938 C-65.90713944 121.61753103 -64.96883448 116.80038966 -63.84887695 111.98168945 C-63.2906311 109.4906824 -62.93403747 107.62271803 -63.42578125 105.09375 C-65.69651734 102.40631494 -65.69651734 102.40631494 -68.42578125 100.09375 C-70.23828125 98.40625 -70.23828125 98.40625 -71.42578125 97.09375 C-71.42578125 96.43375 -71.42578125 95.77375 -71.42578125 95.09375 C-72.0077124 94.83489014 -72.58964355 94.57603027 -73.18920898 94.30932617 C-77.24410759 92.10549033 -80.24414917 88.64454206 -83.48828125 85.40625 C-84.56819336 84.36307617 -84.56819336 84.36307617 -85.66992188 83.29882812 C-91.02765894 77.97093918 -94.00899919 73.84478853 -94.86328125 66.15625 C-94.60768771 60.16141958 -91.7844036 55.69622765 -87.98828125 51.21875 C-83.31100622 47.34003412 -78.34931362 46.62030482 -72.45703125 45.83984375 C-71.69910278 45.73406509 -70.94117432 45.62828644 -70.16027832 45.51930237 C-67.7495625 45.18395846 -65.33777449 44.85726667 -62.92578125 44.53125 C-60.51405199 44.19996851 -58.10258282 43.86688684 -55.69128418 43.53248596 C-54.1945964 43.32549321 -52.69761823 43.12058602 -51.20031738 42.91807556 C-47.57995688 42.42295369 -43.99889873 41.86109877 -40.42578125 41.09375 C-40.34199219 40.44792969 -40.25820312 39.80210938 -40.171875 39.13671875 C-39.14638591 34.95422659 -37.34419037 31.2790232 -35.48828125 27.40625 C-35.12798828 26.63474609 -34.76769531 25.86324219 -34.39648438 25.06835938 C-31.6869809 19.35494965 -31.6869809 19.35494965 -29.42578125 17.09375 C-28.70316399 15.38574557 -27.98156583 13.67728691 -27.26953125 11.96484375 C-24.97466802 6.87577205 -21.99931277 3.26004105 -17.42578125 0.09375 C-11.91953052 -1.74166691 -5.48828945 -2.05037545 0 0 Z M-10.42578125 13.09375 C-14.9012714 19.82064087 -18.25402117 26.88549535 -21.58789062 34.22851562 C-24.08294087 39.60760821 -26.84566458 44.46958956 -30.29125977 49.30102539 C-31.60403429 51.02182549 -31.60403429 51.02182549 -31.42578125 53.09375 C-39.62963671 56.24483894 -47.96824913 57.41985354 -56.61328125 58.65625 C-58.77422174 58.96834019 -60.93468946 59.2829167 -63.09431458 59.60398865 C-65.04532376 59.89368531 -66.99760684 60.17476464 -68.94995117 60.45532227 C-72.25827332 61.06298276 -75.26907087 61.94544249 -78.42578125 63.09375 C-79.47087909 65.25980543 -79.47087909 65.25980543 -79.42578125 68.09375 C-77.48941467 70.51118265 -75.67893478 72.45185764 -73.42578125 74.53125 C-72.52472656 75.39665405 -72.52472656 75.39665405 -71.60546875 76.27954102 C-68.62309891 79.12271746 -65.58243786 81.88191321 -62.42578125 84.53125 C-60.13788625 86.48549364 -58.4613793 88.16262189 -56.61328125 90.46875 C-55.89140625 91.335 -55.16953125 92.20125 -54.42578125 93.09375 C-53.76578125 93.09375 -53.10578125 93.09375 -52.42578125 93.09375 C-47.14612163 102.89883216 -48.24835763 111.33425371 -50.30078125 121.84375 C-50.66413029 123.79425821 -51.02741206 125.74477895 -51.390625 127.6953125 C-51.98372597 130.82060255 -52.59531656 133.9401237 -53.2421875 137.0546875 C-53.44714844 138.09882813 -53.65210937 139.14296875 -53.86328125 140.21875 C-54.04761719 141.08757812 -54.23195313 141.95640625 -54.421875 142.8515625 C-54.4270009 145.79382716 -53.36058194 146.95709988 -51.42578125 149.09375 C-45.69872178 147.51387152 -40.98449751 145.37072318 -35.86328125 142.34375 C-14.14145651 129.55813785 -14.14145651 129.55813785 -5.85546875 130.35546875 C0.66480385 132.33670914 6.62292343 135.83602656 12.57421875 139.09375 C15.13957015 140.49579064 17.70627006 141.89472967 20.27978516 143.28173828 C21.95293835 144.18558135 23.61956743 145.10162628 25.27880859 146.03076172 C26.0414502 146.44471191 26.8040918 146.85866211 27.58984375 147.28515625 C28.26305664 147.65842041 28.93626953 148.03168457 29.62988281 148.41625977 C32.02009374 149.24911202 33.23056287 148.9667839 35.57421875 148.09375 C36.93030262 146.95648614 36.93030262 146.95648614 36.79296875 143.94140625 C36.71109405 137.38119623 35.26784392 130.96069586 34.07421875 124.53125 C33.59986877 121.96847811 33.13093846 119.40469594 32.66796875 116.83984375 C32.45849609 115.71247803 32.24902344 114.5851123 32.03320312 113.42358398 C31.00464689 105.96162737 31.57569202 100.47736286 35.57421875 94.09375 C37.23946114 92.38115475 38.9651424 90.94216905 40.85546875 89.484375 C42.83349473 87.97715972 42.83349473 87.97715972 45.01171875 85.15625 C47.08513571 82.67826388 49.02107107 80.74417737 51.44921875 78.65625 C59.00934564 73.09886671 59.00934564 73.09886671 62.82421875 65.28125 C61.15278536 62.35624157 59.74112961 62.14016661 56.57421875 61.09375 C54.59348419 60.71460452 52.60034651 60.39709118 50.6015625 60.12890625 C49.45365234 59.96841797 48.30574219 59.80792969 47.12304688 59.64257812 C44.74286815 59.32204567 42.36266049 59.00172805 39.98242188 58.68164062 C17.23474929 55.5007683 17.23474929 55.5007683 12.28125 48.98046875 C8.57917662 42.7199831 5.67010797 36.05078915 2.65429688 29.44091797 C1.10778151 26.08011357 -0.49921266 22.76721646 -2.17578125 19.46875 C-2.68625 18.44523437 -3.19671875 17.42171875 -3.72265625 16.3671875 C-5.25621335 13.85621121 -5.25621335 13.85621121 -8.12890625 13.2578125 C-9.26585938 13.17660156 -9.26585938 13.17660156 -10.42578125 13.09375 Z " fill="#383536" transform="translate(108.42578125,16.90625)"/>
<path d="M0 0 C3.99272312 2.38830777 5.34515894 3.70594288 7.50390625 8.0234375 C4.53390625 6.0434375 1.56390625 4.0634375 -1.49609375 2.0234375 C-1.00109375 4.0034375 -1.00109375 4.0034375 -0.49609375 6.0234375 C-1.15609375 6.3534375 -1.81609375 6.6834375 -2.49609375 7.0234375 C-2.82609375 8.0134375 -3.15609375 9.0034375 -3.49609375 10.0234375 C-5.14609375 10.0234375 -6.79609375 10.0234375 -8.49609375 10.0234375 C-8.82609375 10.6834375 -9.15609375 11.3434375 -9.49609375 12.0234375 C-7.51609375 12.0234375 -5.53609375 12.0234375 -3.49609375 12.0234375 C-3.00109375 13.0134375 -3.00109375 13.0134375 -2.49609375 14.0234375 C-3.15609375 15.0134375 -3.81609375 16.0034375 -4.49609375 17.0234375 C-4.90859375 16.5078125 -5.32109375 15.9921875 -5.74609375 15.4609375 C-7.37610057 13.77952662 -7.37610057 13.77952662 -9.47558594 14.20068359 C-12.09127258 15.26579524 -12.45202286 16.19336048 -13.57421875 18.75 C-14.10257324 19.91668213 -14.10257324 19.91668213 -14.64160156 21.10693359 C-15.00608398 21.94562988 -15.37056641 22.78432617 -15.74609375 23.6484375 C-16.53503925 25.38405202 -17.32674715 27.11841327 -18.12109375 28.8515625 C-18.51683594 29.72103516 -18.91257812 30.59050781 -19.3203125 31.48632812 C-21.03067046 35.17695103 -22.85468028 38.79779414 -24.74609375 42.3984375 C-25.349375 43.56117187 -25.95265625 44.72390625 -26.57421875 45.921875 C-30.1830105 51.74581941 -34.07713305 54.78876581 -40.49609375 57.0234375 C-42.97078674 57.54588561 -45.46498707 57.98175354 -47.96875 58.33984375 C-48.99795815 58.4928318 -48.99795815 58.4928318 -50.04795837 58.64891052 C-52.2169641 58.97029441 -54.38748714 59.2790955 -56.55859375 59.5859375 C-58.73300196 59.89780963 -60.90687772 60.2125604 -63.0799408 60.53367615 C-65.04852087 60.82395827 -67.01849211 61.10475976 -68.98852539 61.38500977 C-72.33587894 61.99427611 -75.34369313 62.74545306 -78.49609375 64.0234375 C-80.95993365 67.87988256 -80.43926171 70.68486489 -79.49609375 75.0234375 C-79.49609375 76.0134375 -79.49609375 77.0034375 -79.49609375 78.0234375 C-81.14609375 76.7034375 -82.79609375 75.3834375 -84.49609375 74.0234375 C-85.48609375 74.5184375 -85.48609375 74.5184375 -86.49609375 75.0234375 C-86.49609375 74.3634375 -86.49609375 73.7034375 -86.49609375 73.0234375 C-87.15609375 73.0234375 -87.81609375 73.0234375 -88.49609375 73.0234375 C-88.15164494 75.49610515 -88.15164494 75.49610515 -87.49609375 78.0234375 C-86.83609375 78.3534375 -86.17609375 78.6834375 -85.49609375 79.0234375 C-84.57005856 80.03834914 -83.67872564 81.08520785 -82.80859375 82.1484375 C-80.54264431 84.8188229 -78.26156053 87.46332469 -75.87109375 90.0234375 C-75.32195312 90.6215625 -74.7728125 91.2196875 -74.20703125 91.8359375 C-72.53405812 93.28421164 -72.53405812 93.28421164 -70.28515625 92.7109375 C-69.69476563 92.4840625 -69.104375 92.2571875 -68.49609375 92.0234375 C-66.30511723 95.3575322 -65.06155212 98.06522891 -64.49609375 102.0234375 C-70.37109375 98.3984375 -70.37109375 98.3984375 -71.49609375 95.0234375 C-72.81199727 94.32299467 -74.14846213 93.66070608 -75.49609375 93.0234375 C-78.33749589 90.62224738 -80.92657823 87.96321492 -83.55859375 85.3359375 C-84.63850586 84.29276367 -84.63850586 84.29276367 -85.74023438 83.22851562 C-91.09797144 77.90062668 -94.07931169 73.77447603 -94.93359375 66.0859375 C-94.67800021 60.09110708 -91.8547161 55.62591515 -88.05859375 51.1484375 C-83.38131872 47.26972162 -78.41962612 46.54999232 -72.52734375 45.76953125 C-71.76941528 45.66375259 -71.01148682 45.55797394 -70.23059082 45.44898987 C-67.819875 45.11364596 -65.40808699 44.78695417 -62.99609375 44.4609375 C-60.58436449 44.12965601 -58.17289532 43.79657434 -55.76159668 43.46217346 C-54.2649089 43.25518071 -52.76793073 43.05027352 -51.27062988 42.84776306 C-47.65026938 42.35264119 -44.06921123 41.79078627 -40.49609375 41.0234375 C-40.41230469 40.37761719 -40.32851562 39.73179688 -40.2421875 39.06640625 C-39.21669841 34.88391409 -37.41450287 31.2087107 -35.55859375 27.3359375 C-35.19830078 26.56443359 -34.83800781 25.79292969 -34.46679688 24.99804688 C-31.7572934 19.28463715 -31.7572934 19.28463715 -29.49609375 17.0234375 C-28.77347649 15.31543307 -28.05187833 13.60697441 -27.33984375 11.89453125 C-25.04498052 6.80545955 -22.06962527 3.18972855 -17.49609375 0.0234375 C-11.96086901 -1.82163741 -5.48793306 -2.14707866 0 0 Z " fill="#3B3839" transform="translate(108.49609375,16.9765625)"/>
<path d="M0 0 C5.49261136 1.88318104 8.97872252 4.26321675 11.95703125 9.328125 C12.58730457 10.62977642 13.20524442 11.93745228 13.8125 13.25 C14.14797852 13.94367676 14.48345703 14.63735352 14.82910156 15.35205078 C15.89784509 17.56261006 16.95065374 19.78017361 18 22 C19.4025957 24.96534278 20.82123368 27.92219374 22.25 30.875 C22.72530151 31.90028809 22.72530151 31.90028809 23.21020508 32.94628906 C25.0218634 36.68654822 26.11247057 38.54217647 30 40 C32.45212611 40.46641764 34.85808387 40.85612032 37.328125 41.18359375 C38.78256327 41.39119771 40.23698998 41.59888259 41.69140625 41.80664062 C43.96626167 42.12298694 46.24149429 42.43633763 48.51708984 42.74731445 C68.8092673 45.54372394 68.8092673 45.54372394 73.0625 50.3125 C74.20952623 53.60064186 73.85370297 55.6627975 73 59 C72.34 59 71.68 59 71 59 C70.9071875 59.86625 70.9071875 59.86625 70.8125 60.75 C69.67972699 63.88690987 67.65802405 65.09167504 65 67 C64.9727585 65.58344207 64.95349533 64.16672955 64.9375 62.75 C64.92589844 61.96109375 64.91429687 61.1721875 64.90234375 60.359375 C64.99640314 58.0869002 65.40686926 56.18571012 66 54 C66 53.34 66 52.68 66 52 C65.34 52 64.68 52 64 52 C63.67 53.32 63.34 54.64 63 56 C62.34 56 61.68 56 61 56 C61 56.66 61 57.32 61 58 C53.59607843 58.1254902 53.59607843 58.1254902 50.625 57.5 C48.15837412 57.0301665 46.24274039 57.03267628 43.75 57.125 C35.0324999 57.16426802 23.5915451 56.76073969 16.4375 51.25 C11.81194279 46.33534546 8.89922758 40.07147983 5.98779297 34.04345703 C4.99300481 31.98552899 3.9688811 29.94411444 2.94140625 27.90234375 C2.29216347 26.58176313 1.64495537 25.26017983 1 23.9375 C0.69698975 23.33099609 0.39397949 22.72449219 0.08178711 22.09960938 C-1.74117338 18.24287348 -2.31045804 15.2493944 -2 11 C-4.97 10.505 -4.97 10.505 -8 10 C-7.67 9.01 -7.34 8.02 -7 7 C-5.35 7.33 -3.7 7.66 -2 8 C-1.7834375 6.576875 -1.7834375 6.576875 -1.5625 5.125 C-1 2 -1 2 0 0 Z " fill="#322F30" transform="translate(107,19)"/>
<path d="M0 0 C3.99272312 2.38830777 5.34515894 3.70594288 7.50390625 8.0234375 C4.53390625 6.0434375 1.56390625 4.0634375 -1.49609375 2.0234375 C-1.00109375 4.0034375 -1.00109375 4.0034375 -0.49609375 6.0234375 C-1.15609375 6.3534375 -1.81609375 6.6834375 -2.49609375 7.0234375 C-2.82609375 8.0134375 -3.15609375 9.0034375 -3.49609375 10.0234375 C-5.14609375 10.0234375 -6.79609375 10.0234375 -8.49609375 10.0234375 C-8.82609375 10.6834375 -9.15609375 11.3434375 -9.49609375 12.0234375 C-7.51609375 12.0234375 -5.53609375 12.0234375 -3.49609375 12.0234375 C-3.00109375 13.0134375 -3.00109375 13.0134375 -2.49609375 14.0234375 C-3.15609375 15.0134375 -3.81609375 16.0034375 -4.49609375 17.0234375 C-4.90859375 16.5078125 -5.32109375 15.9921875 -5.74609375 15.4609375 C-7.37400905 13.78573296 -7.37400905 13.78573296 -9.46459961 14.17431641 C-12.19740192 15.31656931 -12.57721822 16.48650472 -13.75 19.171875 C-14.12962891 20.01234375 -14.50925781 20.8528125 -14.90039062 21.71875 C-15.28259766 22.60304688 -15.66480469 23.48734375 -16.05859375 24.3984375 C-16.82478863 26.13804525 -17.59671648 27.87514189 -18.375 29.609375 C-18.71088135 30.3832959 -19.0467627 31.1572168 -19.39282227 31.95458984 C-20.51928835 34.06693187 -21.7215094 35.4348344 -23.49609375 37.0234375 C-23.82609375 35.7034375 -24.15609375 34.3834375 -24.49609375 33.0234375 C-23.01109375 32.5284375 -23.01109375 32.5284375 -21.49609375 32.0234375 C-22.48609375 30.7034375 -23.47609375 29.3834375 -24.49609375 28.0234375 C-22.84609375 28.0234375 -21.19609375 28.0234375 -19.49609375 28.0234375 C-19.49609375 27.3634375 -19.49609375 26.7034375 -19.49609375 26.0234375 C-21.14609375 25.6934375 -22.79609375 25.3634375 -24.49609375 25.0234375 C-24.49609375 25.6834375 -24.49609375 26.3434375 -24.49609375 27.0234375 C-25.15609375 27.0234375 -25.81609375 27.0234375 -26.49609375 27.0234375 C-26.82609375 27.6834375 -27.15609375 28.3434375 -27.49609375 29.0234375 C-27.82609375 27.3734375 -28.15609375 25.7234375 -28.49609375 24.0234375 C-29.48609375 24.0234375 -30.47609375 24.0234375 -31.49609375 24.0234375 C-31.75132813 24.87615234 -31.75132813 24.87615234 -32.01171875 25.74609375 C-33.64677112 30.9556489 -35.62918547 35.37706891 -38.49609375 40.0234375 C-39.15609375 40.0234375 -39.81609375 40.0234375 -40.49609375 40.0234375 C-39.03038912 35.19259467 -37.04050445 30.87034625 -34.74609375 26.3984375 C-34.02286345 24.98206381 -33.30021236 23.56539422 -32.578125 22.1484375 C-32.22314941 21.45234375 -31.86817383 20.75625 -31.50244141 20.0390625 C-30.59325521 18.21804328 -29.73483501 16.37189312 -28.8828125 14.5234375 C-26.05003372 8.41501964 -23.35592712 3.6131175 -17.49609375 0.0234375 C-11.96086901 -1.82163741 -5.48793306 -2.14707866 0 0 Z " fill="#3C3839" transform="translate(108.49609375,16.9765625)"/>
<path d="M0 0 C5.39322665 1.84910628 9.32366001 4.36141472 12.02734375 9.46875 C12.67659482 10.80648984 13.31284789 12.15059844 13.9375 13.5 C14.62200137 14.9298764 15.30690147 16.35956199 15.9921875 17.7890625 C16.49443848 18.85108887 16.49443848 18.85108887 17.00683594 19.93457031 C17.93209417 21.8587799 18.89420988 23.75614934 19.8828125 25.6484375 C20.43710938 26.71320312 20.99140625 27.77796875 21.5625 28.875 C22.30693359 30.29425781 22.30693359 30.29425781 23.06640625 31.7421875 C23.37449219 32.48726562 23.68257812 33.23234375 24 34 C23.67 34.66 23.34 35.32 23 36 C20.9375 36.625 20.9375 36.625 19 37 C19 36.34 19 35.68 19 35 C15.535 35.495 15.535 35.495 12 36 C12 33 12 33 13 31 C12.34 31 11.68 31 11 31 C9.65425317 36.13830608 10.49902356 38.41487652 13 43 C12.67 43.66 12.34 44.32 12 45 C11.49210937 43.98421875 10.98421875 42.9684375 10.4609375 41.921875 C10.13029297 41.26106934 9.79964844 40.60026367 9.45898438 39.91943359 C8.73216308 38.46480881 8.00691963 37.00939465 7.28320312 35.55322266 C5.60119111 32.17356932 3.90066901 28.8125595 2.1328125 25.4765625 C1.32457031 23.94128906 1.32457031 23.94128906 0.5 22.375 C0.0153125 21.47523437 -0.469375 20.57546875 -0.96875 19.6484375 C-2.15369749 16.60527691 -2.18991032 14.23797092 -2 11 C-4.97 10.505 -4.97 10.505 -8 10 C-7.67 9.01 -7.34 8.02 -7 7 C-5.35 7.33 -3.7 7.66 -2 8 C-1.7834375 6.576875 -1.7834375 6.576875 -1.5625 5.125 C-1 2 -1 2 0 0 Z " fill="#3C393A" transform="translate(107,19)"/>
<path d="M0 0 C3.79319535 1.55932742 6.11373748 3.94246388 8.9375 6.875 C11.48158652 9.50952545 13.92568121 11.94207051 16.81640625 14.1953125 C17.53699219 14.79085937 18.25757812 15.38640625 19 16 C19 16.66 19 17.32 19 18 C19.99 18.33 20.98 18.66 22 19 C24.77219595 21.83312333 26.93373671 24.60847098 27.125 28.625 C26 31 26 31 23.4375 33.5 C20.73501594 35.75931318 20.73501594 35.75931318 20.6875 38.8125 C20.790625 39.534375 20.89375 40.25625 21 41 C20.34 41 19.68 41 19 41 C18.731875 40.13375 18.46375 39.2675 18.1875 38.375 C16.68716538 34.11089108 15.22573872 30.22573872 12 27 C12 26.01 12 25.02 12 24 C10.02 24.99 10.02 24.99 8 26 C5.68739326 23.83378929 3.40427286 21.63871557 1.125 19.4375 C0.47402344 18.82841797 -0.17695313 18.21933594 -0.84765625 17.59179688 C-4.9731025 13.57267656 -6.95909133 10.6956763 -8 5 C-4.65626525 5.55728913 -1.96687001 6.35173889 1 8 C0.649375 7.4225 0.29875 6.845 -0.0625 6.25 C-1.14917407 3.64198224 -0.93065133 2.60582371 0 0 Z " fill="#282426" transform="translate(28,85)"/>
<path d="M0 0 C3.89293636 2.18783023 6.24238057 4.69193397 8.75 8.375 C8.75 11.375 8.75 11.375 7.3125 12.875 C6.796875 13.37 6.28125 13.865 5.75 14.375 C5.42 15.365 5.09 16.355 4.75 17.375 C0.76190451 16.96805148 -2.13661307 16.43169347 -5.75 14.625 C-9.26467258 12.94804169 -9.26467258 12.94804169 -12.8125 14.6875 C-13.946875 15.244375 -15.08125 15.80125 -16.25 16.375 C-19.6875 16.5625 -19.6875 16.5625 -22.25 16.375 C-21.59 14.065 -20.93 11.755 -20.25 9.375 C-20.58 9.705 -20.91 10.035 -21.25 10.375 C-22.24 10.705 -23.23 11.035 -24.25 11.375 C-24.58 10.385 -24.91 9.395 -25.25 8.375 C-24.26 8.045 -23.27 7.715 -22.25 7.375 C-22.58 6.385 -22.91 5.395 -23.25 4.375 C-22.280625 3.92125 -21.31125 3.4675 -20.3125 3 C-17.17920418 1.71713779 -17.17920418 1.71713779 -16.25 -0.625 C-10.72542882 -2.46652373 -5.33994339 -2.4419855 0 0 Z " fill="#333031" transform="translate(109.25,148.625)"/>
<path d="M0 0 C0.66 0.33 1.32 0.66 2 1 C1.01 1.61875 0.02 2.2375 -1 2.875 C-1.99 3.57625 -2.98 4.2775 -4 5 C-4 5.66 -4 6.32 -4 7 C-4.66 7.66 -5.32 8.32 -6 9 C-6 9.66 -6 10.32 -6 11 C-5.34 10.34 -4.68 9.68 -4 9 C-3.34 8.34 -2.68 7.68 -2 7 C-0.7922442 10.62326739 -1.45688872 11.64146369 -3 15 C-1.515 15.99 -1.515 15.99 0 17 C-3.42885941 18.87048933 -6.86932965 20.71850596 -10.3125 22.5625 C-11.28896484 23.09552734 -12.26542969 23.62855469 -13.27148438 24.17773438 C-14.20927734 24.67724609 -15.14707031 25.17675781 -16.11328125 25.69140625 C-16.97735596 26.15748291 -17.84143066 26.62355957 -18.73168945 27.10375977 C-21 28 -21 28 -24 27 C-22.68 26.67 -21.36 26.34 -20 26 C-20.495 25.113125 -20.99 24.22625 -21.5 23.3125 C-22.94378674 20.12413762 -23.30159922 18.41812454 -23 15 C-25.02045442 15.60183749 -27.02111039 16.27306096 -29 17 C-29.33 17.66 -29.66 18.32 -30 19 C-31.32 19 -32.64 19 -34 19 C-34 18.34 -34 17.68 -34 17 C-32.52853516 16.27296875 -32.52853516 16.27296875 -31.02734375 15.53125 C-23.21093276 11.65377169 -15.44999639 7.70096945 -7.78686523 3.52734375 C-5.20722751 2.13091216 -2.79073688 0.93024563 0 0 Z " fill="#413E3F" transform="translate(91,149)"/>
<path d="M0 0 C1 2 1 2 1 5 C1.99 4.67 2.98 4.34 4 4 C4 3.34 4 2.68 4 2 C6.475 2.495 6.475 2.495 9 3 C9 3.66 9 4.32 9 5 C8.01 5.33 7.02 5.66 6 6 C6.33 6.99 6.66 7.98 7 9 C6.34 9.66 5.68 10.32 5 11 C5.12375 12.2375 5.12375 12.2375 5.25 13.5 C4.87422562 18.76084129 2.34606542 22.96439832 -1 27 C-3.70703125 28.296875 -3.70703125 28.296875 -6 29 C-6 28.34 -6 27.68 -6 27 C-7.65 26.67 -9.3 26.34 -11 26 C-11 25.34 -11 24.68 -11 24 C-12.32 23.67 -13.64 23.34 -15 23 C-14.34 22.67 -13.68 22.34 -13 22 C-12.34444881 19.47266765 -12.34444881 19.47266765 -12 17 C-11.34 17 -10.68 17 -10 17 C-9.566875 15.576875 -9.566875 15.576875 -9.125 14.125 C-8 11 -8 11 -6 9 C-5.19916172 6.94968628 -4.54290981 4.87559499 -3.87890625 2.77734375 C-3.58886719 2.19082031 -3.29882812 1.60429688 -3 1 C-2.01 0.67 -1.02 0.34 0 0 Z " fill="#2D2A2B" transform="translate(80,40)"/>
<path d="M0 0 C3.95496075 1.31832025 6.36899279 2.74309002 9 6 C9.49609375 8.875 9.49609375 8.875 9.4375 12 C9.43621094 13.03125 9.43492188 14.0625 9.43359375 15.125 C8.95134452 18.32261649 8.05541209 19.57325392 6 22 C5.67 22.99 5.34 23.98 5 25 C4.01 24.34 3.02 23.68 2 23 C2 22.34 2 21.68 2 21 C1.34 21 0.68 21 0 21 C-2.09350689 17.5980513 -2.17942163 14.94727588 -2 11 C-4.97 10.505 -4.97 10.505 -8 10 C-7.67 9.01 -7.34 8.02 -7 7 C-5.35 7.33 -3.7 7.66 -2 8 C-1.7834375 6.576875 -1.7834375 6.576875 -1.5625 5.125 C-1 2 -1 2 0 0 Z " fill="#292527" transform="translate(107,19)"/>
<path d="M0 0 C0.66 0 1.32 0 2 0 C1.67 1.32 1.34 2.64 1 4 C3.31 4 5.62 4 8 4 C8 4.66 8 5.32 8 6 C9.32 5.34 10.64 4.68 12 4 C12.268125 5.134375 12.53625 6.26875 12.8125 7.4375 C13.204375 8.613125 13.59625 9.78875 14 11 C14.99 11.33 15.98 11.66 17 12 C16.401875 12.2475 15.80375 12.495 15.1875 12.75 C12.71352479 14.16370012 11.56629745 15.65055383 10 18 C10 17.34 10 16.68 10 16 C9.236875 16.185625 8.47375 16.37125 7.6875 16.5625 C5 17 5 17 2 16 C-0.66824809 11.53047403 -2.31474395 7.52126244 -1.25 2.375 C-0.8375 1.59125 -0.425 0.8075 0 0 Z " fill="#262223" transform="translate(118,50)"/>
<path d="M0 0 C0.66 0.66 1.32 1.32 2 2 C4.04573478 2.33669385 6.05600952 2.44069172 8.125 2.55859375 C10 3 10 3 12 6 C11.90149867 9.74305066 11.15534809 10.84844089 8.4375 13.5 C5.73501594 15.75931318 5.73501594 15.75931318 5.6875 18.8125 C5.790625 19.534375 5.89375 20.25625 6 21 C5.34 21 4.68 21 4 21 C3.731875 20.13375 3.46375 19.2675 3.1875 18.375 C2.02566796 15.07295105 0.61743438 12.10008256 -1 9 C-1.66666667 7.66666667 -2.33333333 6.33333333 -3 5 C-2.34 5 -1.68 5 -1 5 C-0.67 3.35 -0.34 1.7 0 0 Z " fill="#211E1F" transform="translate(43,105)"/>
<path d="M0 0 C3.42188655 0.3110806 5.58784 0.71465846 8.4375 2.6875 C10 5 10 5 9.75 8.25 C9.5025 9.1575 9.255 10.065 9 11 C8.34 11 7.68 11 7 11 C6.938125 11.5775 6.87625 12.155 6.8125 12.75 C5.67972699 15.88690987 3.65802405 17.09167504 1 19 C0.9727585 17.58344207 0.95349533 16.16672955 0.9375 14.75 C0.92589844 13.96109375 0.91429687 13.1721875 0.90234375 12.359375 C0.99652889 10.0838619 1.42462381 8.19277224 2 6 C2 5.01 2 4.02 2 3 C1.34 3 0.68 3 0 3 C0 2.01 0 1.02 0 0 Z " fill="#221E20" transform="translate(171,67)"/>
<path d="M0 0 C0.33 1.98 0.66 3.96 1 6 C0.34 6 -0.32 6 -1 6 C-0.67 6.99 -0.34 7.98 0 9 C0 10.66666667 0 12.33333333 0 14 C0.33 14.66 0.66 15.32 1 16 C-0.0828125 16.3403125 -0.0828125 16.3403125 -1.1875 16.6875 C-4.53209313 18.24831013 -6.51603959 20.3031287 -9 23 C-9.66 22.67 -10.32 22.34 -11 22 C-10.11634766 21.22076172 -10.11634766 21.22076172 -9.21484375 20.42578125 C-8.46332031 19.72839844 -7.71179688 19.03101562 -6.9375 18.3125 C-6.18339844 17.62800781 -5.42929688 16.94351563 -4.65234375 16.23828125 C-4.10707031 15.49964844 -3.56179687 14.76101562 -3 14 C-3.33 12.35 -3.66 10.7 -4 9 C-11.26 7.68 -18.52 6.36 -26 5 C-26 4.67 -26 4.34 -26 4 C-18.83437211 3.71899498 -12.05453001 4.79556805 -5 6 C-4.87625 5.195625 -4.7525 4.39125 -4.625 3.5625 C-4.315625 2.2940625 -4.315625 2.2940625 -4 1 C-2 0 -2 0 0 0 Z " fill="#716D6E" transform="translate(173,71)"/>
<path d="M0 0 C0.33 2.97 0.66 5.94 1 9 C-0.32 9.33 -1.64 9.66 -3 10 C-3 9.34 -3 8.68 -3 8 C-4.65 7.67 -6.3 7.34 -8 7 C-8 6.34 -8 5.68 -8 5 C-9.32 4.67 -10.64 4.34 -12 4 C-11.34 3.67 -10.68 3.34 -10 3 C-9.67 2.01 -9.34 1.02 -9 0 C-5.52176885 -1.15941038 -3.54104422 -0.70820884 0 0 Z " fill="#252122" transform="translate(77,59)"/>
<path d="M0 0 C1 2 1 2 1 5 C1.99 4.67 2.98 4.34 4 4 C4 3.34 4 2.68 4 2 C5.65 2.33 7.3 2.66 9 3 C9 3.66 9 4.32 9 5 C8.01 5.33 7.02 5.66 6 6 C6.33 6.99 6.66 7.98 7 9 C5.02 9.99 5.02 9.99 3 11 C3 10.01 3 9.02 3 8 C1.576875 8.2784375 1.576875 8.2784375 0.125 8.5625 C-3 9 -3 9 -5 8 C-4.125 3.25 -4.125 3.25 -3 1 C-2.01 0.67 -1.02 0.34 0 0 Z " fill="#211E1F" transform="translate(80,40)"/>
<path d="M0 0 C4.68341571 1.82255564 7.64871152 5.6369584 10.93359375 9.27539062 C12.48108289 10.96166399 12.48108289 10.96166399 15 13 C17.30192445 12.98574976 17.30192445 12.98574976 19 12 C21.19097652 15.3340947 22.43454163 18.04179141 23 22 C17.125 18.375 17.125 18.375 16 15 C15.17242187 14.59974609 15.17242187 14.59974609 14.328125 14.19140625 C10.85763775 12.41540187 8.45698657 9.70600899 5.75 6.9375 C5.19570313 6.38255859 4.64140625 5.82761719 4.0703125 5.25585938 C0 1.14043257 0 1.14043257 0 0 Z " fill="#888788" transform="translate(21,97)"/>
<path d="M0 0 C1.231394 2.46278801 1.07159196 4.2795055 1 7 C0.01 7 -0.98 7 -2 7 C-2.17015625 7.56847656 -2.3403125 8.13695312 -2.515625 8.72265625 C-4.15067737 13.9322114 -6.13309172 18.35363141 -9 23 C-9.66 23 -10.32 23 -11 23 C-9.47583608 17.93275347 -7.32678958 13.38486895 -4.9375 8.6875 C-4.57333984 7.95982422 -4.20917969 7.23214844 -3.83398438 6.48242188 C-1.14074248 1.14074248 -1.14074248 1.14074248 0 0 Z " fill="#939191" transform="translate(79,34)"/>
<path d="M0 0 C0.66 0.66 1.32 1.32 2 2 C4.65537372 2.56520003 7.29144713 2.73788198 10 3 C10 4.32 10 5.64 10 7 C8.33333333 7 6.66666667 7 5 7 C5 7.66 5 8.32 5 9 C4.01 9.33 3.02 9.66 2 10 C1.690625 9.360625 1.38125 8.72125 1.0625 8.0625 C0.1654837 6.06389179 0.1654837 6.06389179 -1 5 C-0.71395102 3.32457024 -0.38218767 1.65614657 0 0 Z " fill="#2A2728" transform="translate(43,105)"/>
<path d="M0 0 C4.875 2.625 4.875 2.625 6 6 C6.99 6.33 7.98 6.66 9 7 C10.1875 9.0625 10.1875 9.0625 11 11 C8.1875 11.3125 8.1875 11.3125 5 11 C3.25 8.75 3.25 8.75 2 6 C1.608125 5.278125 1.21625 4.55625 0.8125 3.8125 C0 2 0 2 0 0 Z " fill="#6F6D6D" transform="translate(41,97)"/>
<path d="M0 0 C2.59463419 2.59463419 2.49855548 4.41825345 3 8 C3.31674575 9.33737094 3.64270064 10.67288808 4 12 C2.35 12 0.7 12 -1 12 C-0.67 11.01 -0.34 10.02 0 9 C-0.41210475 5.70316202 -1.51559898 4.16034872 -4 2 C-2.68 1.34 -1.36 0.68 0 0 Z " fill="#221F20" transform="translate(67,163)"/>
<path d="M0 0 C0.33 0 0.66 0 1 0 C1.125 7.75 1.125 7.75 0 10 C-0.07033769 11.87379605 -0.0843022 13.75001102 -0.0625 15.625 C-0.05347656 16.62789062 -0.04445312 17.63078125 -0.03515625 18.6640625 C-0.02355469 19.43492187 -0.01195312 20.20578125 0 21 C-0.99 21.33 -1.98 21.66 -3 22 C-2.55761615 14.46783285 -1.86094772 7.3197277 0 0 Z " fill="#9F9E9E" transform="translate(45,127)"/>
<path d="M0 0 C1.67666168 3.35332335 0.53482999 7.01064875 0.0625 10.625 C-0.03740234 11.42679688 -0.13730469 12.22859375 -0.24023438 13.0546875 C-0.4880418 15.03714691 -0.74331807 17.01867009 -1 19 C-1.33 19 -1.66 19 -2 19 C-3.75333049 11.76751173 -3.22184497 6.57793349 0 0 Z " fill="#A6A4A5" transform="translate(142,113)"/>
<path d="M0 0 C2.20187672 2.20187672 3.28178929 4.22885682 4.6875 7 C5.14511719 7.886875 5.60273438 8.77375 6.07421875 9.6875 C6.37972656 10.450625 6.68523437 11.21375 7 12 C6.67 12.66 6.34 13.32 6 14 C5.01 13.01 4.02 12.02 3 11 C2.01 11.495 2.01 11.495 1 12 C1 10.68 1 9.36 1 8 C0.835 7.34 0.67 6.68 0.5 6 C0 4 0 4 0 0 Z " fill="#878687" transform="translate(124,41)"/>
<path d="M0 0 C0 3.49889647 -0.54120332 4.0553603 -2.75 6.625 C-3.26046875 7.23601562 -3.7709375 7.84703125 -4.296875 8.4765625 C-6.19607419 10.17538747 -7.51275949 10.5998787 -10 11 C-9.67 10.01 -9.34 9.02 -9 8 C-8.34 8 -7.68 8 -7 8 C-6.773125 7.4225 -6.54625 6.845 -6.3125 6.25 C-4.66961977 3.4336339 -2.60466773 1.91922886 0 0 Z " fill="#8D8C8C" transform="translate(161,94)"/>
<path d="M0 0 C1.9668026 1.9668026 2.9371637 3.5444659 4.1875 6 C4.55230469 6.70125 4.91710937 7.4025 5.29296875 8.125 C5.52628906 8.74375 5.75960937 9.3625 6 10 C5.67 10.66 5.34 11.32 5 12 C4.01 11.34 3.02 10.68 2 10 C2.33 9.34 2.66 8.68 3 8 C2.01 8.33 1.02 8.66 0 9 C-1.10844919 5.67465243 -0.84454356 3.37817425 0 0 Z " fill="#706E6F" transform="translate(116,25)"/>
<path d="M0 0 C0.99 0 1.98 0 3 0 C2.57405412 1.44096586 2.13373367 2.87768712 1.6875 4.3125 C1.44386719 5.11300781 1.20023437 5.91351563 0.94921875 6.73828125 C-0.04182023 9.09964573 -1.08074943 10.33879993 -3 12 C-3.33 10.68 -3.66 9.36 -4 8 C-3.01 7.67 -2.02 7.34 -1 7 C-1.99 5.68 -2.98 4.36 -4 3 C-2.35 3 -0.7 3 1 3 C0.67 2.01 0.34 1.02 0 0 Z " fill="#747374" transform="translate(88,42)"/>
<path d="M0 0 C0.70125 0.639375 1.4025 1.27875 2.125 1.9375 C5.22841233 4.16386102 7.24620139 4.65080943 11 5 C11 5.33 11 5.66 11 6 C9.35 6 7.7 6 6 6 C6 6.66 6 7.32 6 8 C2.97984943 6.99328314 1.90683422 6.451644 0 4 C0 2.68 0 1.36 0 0 Z " fill="#838182" transform="translate(131,55)"/>
<path d="M0 0 C1.32 0.66 2.64 1.32 4 2 C3.43628586 5.26954202 2.50037734 6.82575883 0 9 C-0.84454356 5.62182575 -1.10844919 3.32534757 0 0 Z " fill="#5C5B5C" transform="translate(78,58)"/>
<path d="M0 0 C0.66 0.33 1.32 0.66 2 1 C1.62005832 3.75457718 1.1926367 4.82020574 -0.875 6.75 C-3 8 -3 8 -6 8 C-5.1875 6.0625 -5.1875 6.0625 -4 4 C-3.01 3.67 -2.02 3.34 -1 3 C-0.67 2.01 -0.34 1.02 0 0 Z " fill="#8A8A8A" transform="translate(149,105)"/>
<path d="M0 0 C0.99 0.33 1.98 0.66 3 1 C3 5 3 5 2 8 C1.01 7.34 0.02 6.68 -1 6 C-1.25 3.4375 -1.25 3.4375 -1 1 C-0.67 0.67 -0.34 0.34 0 0 Z " fill="#231F20" transform="translate(110,36)"/>
<path d="M0 0 C3.7910119 1.44950455 7.3874638 3.15172566 11 5 C7.17211056 6.27596315 5.63343017 5.62344752 2 4 C0.625 1.875 0.625 1.875 0 0 Z " fill="#898989" transform="translate(114,152)"/>
<path d="M0 0 C1.65 0.33 3.3 0.66 5 1 C-0.14285714 5.42857143 -0.14285714 5.42857143 -4 6 C-3.67 4.68 -3.34 3.36 -3 2 C-2.01 2.33 -1.02 2.66 0 3 C0 2.01 0 1.02 0 0 Z " fill="#6D6D6D" transform="translate(86,164)"/>
<path d="M0 0 C1.65 0 3.3 0 5 0 C5.061875 0.61875 5.12375 1.2375 5.1875 1.875 C5.828919 4.27761141 5.828919 4.27761141 8.5625 5.25 C9.366875 5.4975 10.17125 5.745 11 6 C9.234375 6.6796875 9.234375 6.6796875 7 7 C5.078125 5.8203125 5.078125 5.8203125 3.25 4.125 C2.63640625 3.57070312 2.0228125 3.01640625 1.390625 2.4453125 C0 1 0 1 0 0 Z " fill="#8C898B" transform="translate(121,66)"/>
<path d="M0 0 C1.32 0.33 2.64 0.66 4 1 C3.1875 2.9375 3.1875 2.9375 2 5 C1.01 5.33 0.02 5.66 -1 6 C-1.33 4.68 -1.66 3.36 -2 2 C-1.34 2 -0.68 2 0 2 C0 1.34 0 0.68 0 0 Z " fill="#5E5D5E" transform="translate(152,171)"/>
<path d="M0 0 C1.98 1.65 3.96 3.3 6 5 C5.01 6.485 5.01 6.485 4 8 C3.01 7.67 2.02 7.34 1 7 C0.67 4.69 0.34 2.38 0 0 Z " fill="#737071" transform="translate(29,85)"/>
<path d="M0 0 C-0.33 1.32 -0.66 2.64 -1 4 C-4.63 3.67 -8.26 3.34 -12 3 C-12 2.67 -12 2.34 -12 2 C-10.37548581 1.66430703 -8.75037083 1.3315204 -7.125 1 C-6.22007813 0.814375 -5.31515625 0.62875 -4.3828125 0.4375 C-2 0 -2 0 0 0 Z " fill="#979797" transform="translate(68,58)"/>
<path d="M0 0 C0.33 0.99 0.66 1.98 1 3 C0.34 3 -0.32 3 -1 3 C-1 4.32 -1 5.64 -1 7 C-2.65 7.33 -4.3 7.66 -6 8 C-4.02 5.36 -2.04 2.72 0 0 Z " fill="#1F1C1D" transform="translate(161,96)"/>
<path d="M0 0 C1.32 0.66 2.64 1.32 4 2 C2.625 4.5 2.625 4.5 1 7 C0.34 7 -0.32 7 -1 7 C-1.33 6.01 -1.66 5.02 -2 4 C-1.01 3.67 -0.02 3.34 1 3 C0.67 2.01 0.34 1.02 0 0 Z " fill="#201D1E" transform="translate(86,153)"/>
<path d="M0 0 C2.64 0 5.28 0 8 0 C8.33 0.66 8.66 1.32 9 2 C8.01 3.485 8.01 3.485 7 5 C6.5875 4.505 6.175 4.01 5.75 3.5 C3.87797662 1.56613908 3.87797662 1.56613908 0 2 C0 1.34 0 0.68 0 0 Z " fill="#7A7879" transform="translate(97,29)"/>
<path d="M0 0 C1.32 0 2.64 0 4 0 C4 0.99 4 1.98 4 3 C4.66 3.33 5.32 3.66 6 4 C4.68 4 3.36 4 2 4 C1.34 2.68 0.68 1.36 0 0 Z " fill="#726E70" transform="translate(17,92)"/>
</svg>
