<?xml version="1.0" encoding="UTF-8"?>
<svg version="1.1" xmlns="http://www.w3.org/2000/svg" width="284" height="286">
<path d="M0 0 C5.41850716 2.47922261 9.34466075 6.6893215 12 12 C12.25 15.375 12.25 15.375 12 18 C13.15757812 18.10183594 14.31515625 18.20367187 15.5078125 18.30859375 C19.98747881 18.87520355 23.77222929 20.22199062 27.875 22.0625 C28.57044922 22.37195557 29.26589844 22.68141113 29.98242188 23.00024414 C36.08606937 25.83316967 41.07603509 29.40429942 46 34 C46.70511719 34.62648437 47.41023437 35.25296875 48.13671875 35.8984375 C62.39183824 49.20321569 68.47054357 68.29707966 69.30029297 87.39672852 C69.47567186 93.32600141 69.52583581 99.25599602 69.5625 105.1875 C69.03582758 133.13959245 69.03582758 133.13959245 81.91015625 157.05859375 C85.17500823 160.0915497 88.75410576 162.62073324 92.3984375 165.17578125 C95.43995464 167.30849672 98.26504937 169.48680213 101 172 C101 172.66 101 173.32 101 174 C101.66 174 102.32 174 103 174 C105.47301696 178.64927188 106.77132178 182.37777563 105.78369141 187.65953064 C104.25640395 192.22072587 101.15742168 194.7450785 97 197 C91.85173315 198.00584411 86.78139229 197.95722691 81.5625 197.90234375 C80.07175526 197.9117404 78.581027 197.92420532 77.09033203 197.93959045 C73.19051922 197.97168257 69.29188783 197.96242395 65.39202881 197.94421387 C61.40315045 197.93301802 57.41456845 197.96139579 53.42578125 197.98632812 C45.61694699 198.0293637 37.80893543 198.02866709 30 198 C29.75620605 199.01755371 29.51241211 200.03510742 29.26123047 201.08349609 C28.92215417 202.43862801 28.58243911 203.79360021 28.2421875 205.1484375 C28.08387451 205.81673584 27.92556152 206.48503418 27.76245117 207.17358398 C26.08947989 213.73307571 22.75844775 218.21372507 18 223 C17.49339844 223.52078125 16.98679688 224.0415625 16.46484375 224.578125 C9.13372133 231.35788167 1.36608315 232.6225889 -8.25805664 232.54272461 C-18.38331559 232.13939916 -25.89182353 228.10817647 -33 221 C-33 220.34 -33 219.68 -33 219 C-33.66 219 -34.32 219 -35 219 C-38.85026764 211.69624803 -42.15710477 205.41224656 -42 197 C-42.85698486 197.07581299 -43.71396973 197.15162598 -44.59692383 197.22973633 C-56.51188578 198.1389655 -68.35370501 198.01407721 -80.29467773 197.75805664 C-83.71912813 197.68684227 -87.14358268 197.63299208 -90.56835938 197.58007812 C-92.75783299 197.53749933 -94.94728737 197.49391666 -97.13671875 197.44921875 C-98.15440842 197.43453049 -99.17209808 197.41984222 -100.22062683 197.40470886 C-101.16964371 197.38161148 -102.11866058 197.3585141 -103.09643555 197.3347168 C-103.92531784 197.31837692 -104.75420013 197.30203705 -105.60820007 197.28520203 C-109.5839204 196.81113081 -112.30406085 195.63794422 -115.25 192.9375 C-117.61966978 188.95984001 -118.30932361 185.61665492 -118 181 C-115.23098662 171.14449844 -106.42167795 165.45807231 -98.51953125 159.84765625 C-95.70957038 157.78701828 -93.31914736 155.60025614 -91 153 C-90.319375 152.29875 -89.63875 151.5975 -88.9375 150.875 C-81.30772517 139.55339865 -81.95818657 126.52951485 -82.04101562 113.44628906 C-82.20749165 86.25772788 -81.23783884 59.22404655 -62.52734375 37.5390625 C-58.10595304 33.09717075 -53.18822042 29.49291459 -48 26 C-47.37351562 25.56945312 -46.74703125 25.13890625 -46.1015625 24.6953125 C-39.99195038 20.85072731 -32.21346755 18 -25 18 C-24.95875 16.824375 -24.9175 15.64875 -24.875 14.4375 C-24.24621725 9.37130759 -21.78013718 6.30343846 -18 3 C-12.35740516 -1.0672511 -6.7255607 -0.99908692 0 0 Z " fill="#040404" transform="translate(149,29)"/>
<path d="M0 0 C0 0.33 0 0.66 0 1 C-22.11 1.33 -44.22 1.66 -67 2 C-67.66 4.97 -68.32 7.94 -69 11 C-69.33 11 -69.66 11 -70 11 C-70.02688151 9.35425434 -70.04634123 7.70838587 -70.0625 6.0625 C-70.07410156 5.14597656 -70.08570313 4.22945312 -70.09765625 3.28515625 C-70 1 -70 1 -69 0 C-67.06905236 -0.12886574 -65.13345326 -0.18850882 -63.19848633 -0.22119141 C-61.33568779 -0.25595078 -61.33568779 -0.25595078 -59.43525696 -0.29141235 C-58.06751899 -0.31172904 -56.69977694 -0.33177224 -55.33203125 -0.3515625 C-53.93535415 -0.37467681 -52.53868159 -0.39806713 -51.14201355 -0.42172241 C-48.20726538 -0.4702623 -45.27248888 -0.5151688 -42.33764648 -0.55761719 C-38.58612775 -0.61220278 -34.8348365 -0.67608455 -31.08351612 -0.74279213 C-28.19499859 -0.79304672 -25.30641727 -0.83809778 -22.41779137 -0.88163376 C-21.03555343 -0.90312436 -19.65334002 -0.92625957 -18.27115822 -0.9510994 C-16.33035359 -0.98523412 -14.38941652 -1.01156389 -12.44848633 -1.03759766 C-11.34563797 -1.05456696 -10.24278961 -1.07153625 -9.10652161 -1.08901978 C-5.98353192 -0.99952809 -3.06514616 -0.58736553 0 0 Z " fill="#242424" transform="translate(246,225)"/>
<path d="M0 0 C1.084021 0.00523682 2.16804199 0.01047363 3.28491211 0.01586914 C5.03964844 0.02070313 5.03964844 0.02070313 6.82983398 0.02563477 C8.67738281 0.03820312 8.67738281 0.03820312 10.56225586 0.05102539 C12.41560547 0.05779297 12.41560547 0.05779297 14.30639648 0.06469727 C17.37089703 0.07652931 20.43530307 0.09301366 23.49975586 0.11352539 C23.49975586 0.44352539 23.49975586 0.77352539 23.49975586 1.11352539 C15.57975586 1.44352539 7.65975586 1.77352539 -0.50024414 2.11352539 C-1.16024414 5.08352539 -1.82024414 8.05352539 -2.50024414 11.11352539 C-2.83024414 11.11352539 -3.16024414 11.11352539 -3.50024414 11.11352539 C-3.52712565 9.46777973 -3.54658537 7.82191126 -3.56274414 6.17602539 C-3.5743457 5.25950195 -3.58594727 4.34297852 -3.59790039 3.39868164 C-3.46025887 0.17787001 -3.23133938 0.1467213 0 0 Z " fill="#494949" transform="translate(179.500244140625,224.886474609375)"/>
<path d="M0 0 C0.66 0.66 1.32 1.32 2 2 C1.09636719 1.98839844 0.19273437 1.97679688 -0.73828125 1.96484375 C-2.50751953 1.95130859 -2.50751953 1.95130859 -4.3125 1.9375 C-5.48425781 1.92589844 -6.65601563 1.91429688 -7.86328125 1.90234375 C-12.04540928 2.03254699 -13.51325307 2.51325307 -16.5 5.5 C-19 8 -19 8 -22 9 C-20.79597921 5.38793762 -18.44776599 3.1177679 -15.34375 0.98046875 C-10.53793901 -1.02996218 -5.09215254 -0.67657971 0 0 Z " fill="#AEAEAE" transform="translate(149,29)"/>
<path d="M0 0 C0.99 0 1.98 0 3 0 C3 0.66 3 1.32 3 2 C0.69 3.32 -1.62 4.64 -4 6 C-2.84826645 3.53199953 -1.95216435 1.95216435 0 0 Z " fill="#626262" transform="translate(131,32)"/>
</svg>
